<svg xmlns="http://www.w3.org/2000/svg" viewBox="0 0 277.08 84.01"><defs><style>.cls-1{fill:#606468;}.cls-2{fill:#c03459;}.cls-3{fill:#494e52;}</style></defs><title>Recurso 18</title><g id="Capa_2" data-name="Capa 2"><g id="Capa_1-2" data-name="Capa 1"><path class="cls-1" d="M8.24,0c-.06,0-.12,0-.07.19l.16.12A.59.59,0,0,0,8.24,0Z"/><path class="cls-1" d="M7.93.77a.28.28,0,0,0,.38.09C8.15.83,8.21.79,8,.68A.1.1,0,0,1,8.15.56s.06-.13,0-.2A.27.27,0,0,0,8,.77S8,.77,7.93.77Z"/><path class="cls-1" d="M7.6,9.93l0-.06S7.61,9.91,7.6,9.93Z"/><path class="cls-1" d="M7.67,15.66c0-.05,0-.06,0-.07S7.65,15.67,7.67,15.66Z"/><path class="cls-1" d="M7.49,16.63l0-.06S7.48,16.62,7.49,16.63Z"/><path class="cls-1" d="M7.6,9.93l0,.16C7.61,10.1,7.59,10,7.6,9.93Z"/><path class="cls-1" d="M8.62,2a.31.31,0,0,0,0-.1l0,.09Z"/><path class="cls-1" d="M7.63,7.37v0l-.06,0Z"/><path class="cls-1" d="M7.61,5.5s.13,0,.2.06a.17.17,0,0,1-.11-.09Z"/><path class="cls-1" d="M8,2.41v0Z"/><path class="cls-1" d="M7.43,8.77l0,0Z"/><path class="cls-1" d="M8.68,62.87h0S8.68,62.89,8.68,62.87Z"/><polygon class="cls-1" points="7.91 65 7.93 65.01 7.87 65.01 7.91 65"/><path class="cls-1" d="M7.28,18.4h0C7.27,18.34,7.27,18.37,7.28,18.4Z"/><path class="cls-1" d="M7.39,34.83c.13-.19.17.3.31,0C7.64,34.87,7.47,34.6,7.39,34.83Z"/><path class="cls-1" d="M8.6,2V2Z"/><path class="cls-1" d="M7.7,34.85h0v0Z"/><path class="cls-1" d="M7.42,22.57l.06,0S7.45,22.54,7.42,22.57Z"/><path class="cls-1" d="M7.52,19.46l0,.08A.24.24,0,0,0,7.52,19.46Z"/><path class="cls-1" d="M7.65,24.14s0,.05,0,.11v0A.09.09,0,0,1,7.65,24.14Z"/><polygon class="cls-1" points="7.57 25.87 7.59 25.82 7.57 25.75 7.57 25.87"/><path class="cls-1" d="M8.49,57.93,8.36,58C8.46,58,8.49,58.21,8.49,57.93Z"/><path class="cls-1" d="M8.54,2s.05,0,.06,0V2Z"/><path class="cls-1" d="M8.76,24.22l0,.27A1.06,1.06,0,0,0,8.76,24.22Z"/><path class="cls-1" d="M8.52,46v.06A.15.15,0,0,0,8.52,46Z"/><path class="cls-1" d="M8.7,25.33a.53.53,0,0,0-.12.15l0,0Z"/><path class="cls-1" d="M8.36,58Z"/><path class="cls-1" d="M8.71,59.7c0-.25-.18-.11-.29-.16-.06-.3.13-.14.22-.25s-.22-.32-.21-.46,0,0,.07,0c-.15-.2,0-.58-.18-.8a.05.05,0,0,1,0,0,.59.59,0,0,1-.25,0c0-.11-.11-.22,0-.25s0,.07.08.11l0-.12c.18-.09,0,.16.18.16a2.05,2.05,0,0,1-.12-.72c.07,0,.13.11.12.22s0,.14.09,0l-.08.26c.27-.18,0,.15.26,0a.81.81,0,0,0,0-.19,1,1,0,0,0,0-.29.72.72,0,0,0-.06-.17.6.6,0,0,1,0-.19c-.1-.07-.14,0-.24,0-.19-.48.41-.39.18-.75-.11-.09-.33-.13-.21-.39l.19.09c0-.34-.28-.2-.14-.56.07.07.06.27.08.22.16-.23-.1-.17-.1-.35l.17,0c0-.37-.12-.78-.14-1.19.05,0,.1.1.15,0a6.26,6.26,0,0,1,.15-1.65c-.05-.1-.1,0-.14-.11s.07-.08.09,0c.08-.2-.09,0-.14-.12s.1-.14.14-.07a2.5,2.5,0,0,1-.07-1.38l0,.07c.06-.29-.3-.32-.17-.59l0,0a6.15,6.15,0,0,1,.12-1.76c-.22-.08.08-.6-.22-.64.14-.35.2-.25.29-.74,0-.13-.19-.19-.22-.35h.16l-.17-.21.19-.12c0-.05,0-.12,0-.11s-.07.1-.12.08.15-.58.22-.57c0-.2-.08-.39-.13-.59.07,0,.09.11.13.19-.16-.31.16-.06,0-.34,0,0-.09,0-.12,0a1.12,1.12,0,0,0,0-.69l.11,0c0-.43-.1-.89-.12-1.35a.13.13,0,0,1-.26,0l.16-.06c-.1-.08,0,.15-.18,0s.18-.12.23,0l-.06-.2c.05,0,.07,0,.14,0-.11-.08.14-.37,0-.48l0,0c0-.45-.07-.66-.07-1-.14,0-.11-.16-.21-.27a6.53,6.53,0,0,0,.2-.89c-.05-.24-.11-.08-.19-.19.14,0,.15-.35.23-.16a4.1,4.1,0,0,0-.08-1.07c-.06,0-.08.12-.12.08s.06-.21.12-.2v0c-.18-.58.39-1.34.12-1.8l0,0-.15-.47c0-.22.1.13.18,0-.22-.51,0-.81-.13-1.23.37-.34,0-1.16.18-1.6l-.09,0c-.09-.11.05-.13.07-.22s-.08.13-.13.06l0-.36a1,1,0,0,1,0-.29c.05-.25.1-.5.16-.75.11-.5.24-1,.31-1.52s-.44-.23-.22-.69l.16.14c-.17-.75,0-1.54-.19-2.28.05.05.1,0,.1.12.11-.17,0-.59-.14-.58s.08,0,.13-.11-.21-.38-.1-.48,0,0,.06.06-.07-.48-.19-.36a.84.84,0,0,0-.06-.35s0,0,0-.18c-.13-.17.13-.49-.09-.55.23,0,.21-.49.1-.66.07.06.08-.15.17-.08,0-.2,0-.39-.16-.35.27-.37-.23-.73.11-.94-.14-.58-.25-1.11-.33-1.62.23,0,0,.57.29.54a3.55,3.55,0,0,1-.29-1.25c0-.12.1.07.14.11-.11-.48,0-.93-.12-1.34,0,0,0,0,.06.09s0-.19-.06-.19l0,.08c-.15.13-.29-.34-.37-.37.29.17.1-.43.46-.17,0-.06-.07-.14-.14-.13s.07-.11.14,0c0-.31-.15-.2-.14-.49.05,0,.07.06.12.09a.63.63,0,0,1-.13-.52s.07,0,.06.06c0-.41-.24-.7-.15-1.15.22.13.07-.15.26-.18l-.06-.24-.09.1c0-.21-.13-.4-.08-.58l.08.16,0-.4-.07.23c-.1-.21-.23,0-.18-.25,0,0,0-.21.1-.33h0a.4.4,0,0,1-.08-.36c.06,0,.2,0,.24,0-.15-.1,0-.49-.22-.61a.16.16,0,0,0,.16,0l-.13-.08c0-.1.06-.11.13-.1,0-.29-.23.1-.14-.25,0,0,0,0,0,.07.05-.35-.09-.66,0-1,.18-.1,0,.28.2.17a11.67,11.67,0,0,1-.2-1.41l0,.08c-.27,0,.12-.34,0-.56,0,.06.15.07.12.05a3.84,3.84,0,0,0-.2-1.07l.07.05c0-.18,0-.47,0-.66s-.06-.17-.16-.1c.38-.58-.19-1.13.24-1.61,0,.07,0,.16,0,.12s0-.33,0-.49c-.12,0-.08.06-.18.14A.46.46,0,0,1,8,7.24c.06.21.19,0,.26-.07s-.07,0-.11,0c.22-.23-.22-.05-.07-.37l.06,0c0-.13-.11-.24-.09-.37s.06.13.17.14c0-.19-.25-.36-.13-.53a2.13,2.13,0,0,1,.08.27c.16-.19.11-.21.13-.35h0l.05-.32,0,.08C8,5.53,8.25,5.27,8,5c.24.28.13,0,.28,0s.08-.2.12-.17c-.13-.13.08-.24-.1-.43,0,0,0-.15.12-.12,0-.18-.08,0-.14,0a.6.6,0,0,1,0-.49.75.75,0,0,0,.08-.53c0-.39-.17-.48-.22-.83.09-.1.17.12.17.12a.65.65,0,0,0,0-.51s.08,0,.13-.06S8.3,2,8.36,1.75a.6.6,0,0,1,.21.13,2.86,2.86,0,0,0-.27-.52c.07-.08.16.08.23.14a1.41,1.41,0,0,0-.26-.45L8.18,1H8.11s0,0,0,0v.06s.09-.07.12-.05h0c.18.16.05.28,0,.3L8.2,1.24c-.21.21.17.48.16.77l-.21-.1a2.2,2.2,0,0,1,.17.25c-.05,0-.17.08-.2,0-.1.16.08.15,0,.29s0,0,0,0l.05.17S7.93,2.6,8,2.5c-.14.27.09.49-.08.58v0c0,.42.15.07.25.42l-.42.11.14.09s0,.14-.1.12c.1.18.07,0,.17.08-.15.21.06.58-.18.63.12.07.08-.21.17,0-.26.07.06.26,0,.45-.14,0-.08-.24-.19,0,.24.1,0,.38,0,.53s.11.35.18.61c-.06,0-.08.51-.16.74h0c.18,0,.13.3.15.49a.21.21,0,0,1-.19-.16l0,.17a.28.28,0,0,1,.09.22l-.13-.06a2.24,2.24,0,0,1,0,.79c.12,0,.38-.2.43.12-.07,0-.19,0-.21-.08s0,.11,0,.16l-.1-.14c-.06.14.09.08.07.19s-.08.08-.15.06,0-.1,0-.14a.58.58,0,0,1-.17.33.11.11,0,0,1,.14.1c0,.24-.12.08-.17.22s0,.22.14.22-.07.09-.11.12,0,.58.19.43v0h0c.16.4,0,.84,0,1.24h0a3.17,3.17,0,0,0,.17.69c0,.07-.08.17-.14.14,0,.18.1.2,0,.46-.09-.18-.08.06-.07-.18,0,.23-.11.28,0,.54-.13-.09-.16.17-.12.28l.09-.16a1.37,1.37,0,0,1,0,.35l-.17-.06c-.2.5.36.88,0,1.25.12.13.07-.26.21-.15,0,.22-.25.46-.25.53-.08.31.25.28.2.6.06,0,.21-.08.27.15s-.24.28-.29.14,0-.08,0-.08,0-.16-.11-.07l.06,0c-.06.11,0,.41-.15.34.06.17.1.07.13-.05a5.84,5.84,0,0,0,0,.73s.1-.09.1,0c-.08.43.11.19.13.48s-.21-.06-.14.23-.16,0-.2,0c.11.26-.09.49-.11.64l0-.14a.58.58,0,0,1,0,.22l.12-.07c0,.08,0,.15-.08.14s.2-.06.3.12c-.06.1,0,.33-.1.36.06-.34-.16,0-.18-.26a.31.31,0,0,1,0,.21s0,0,0,0c-.15.32.17.15.15.49-.08-.05-.17.07-.15.12,0-.13.15-.06.21.08s0,.26,0,.37l0-.13c.08.05.07.16.09.32s0-.15-.07-.09c.15.18-.16.4,0,.64-.06.11-.17,0-.21.12.12.27-.11.29,0,.58.12-.09.09-.1.22.09l-.11-.46.19.29c0-.14-.09-.29-.07-.38.1.14.07.13.17.06-.17.2.12.37,0,.6h-.3c-.12.34.18.58.12,1l0-.14c.12.05,0,.27.08.4s-.13.08-.19.15,0,.31.2.34l-.12.19c0,.35.29.39.26.72-.11-.09-.17.06-.25-.16,0,.11,0,.2,0,.21s.13.3,0,.4.15.06.14.19h0s.06.19.17.09a.87.87,0,0,0-.17.62,1.47,1.47,0,0,1,0,.32c0,.13-.08.26-.11.37a4.38,4.38,0,0,1,.21.73s0,0,0,0c0,.3.31.14.25.5-.14.18-.11-.18-.16-.06-.31.08.09.4-.09.64l0-.05c-.1.18.15.42.13.71,0,0,0,0-.05,0a1.74,1.74,0,0,1,.27.84C8,29,8,29,7.88,29c0,.12.21,0,.25.21-.08.08-.14.26-.28.28v-.23c-.18.11,0,.3,0,.42l-.08,0c0,.36.21.37.16.76l.07,0c.17.23-.12.17,0,.39l-.2.05a3.76,3.76,0,0,1,.15.76A2.41,2.41,0,0,1,7.67,31c0,.14,0,.47,0,.55s0-.13,0-.18a1,1,0,0,1,.15.69c-.19-.05-.24.13-.28.33s0,.53-.19.62a6.72,6.72,0,0,1,0,1.55c.29-.21,0,.17.32.13,0,.13,0,.18,0,.2l-.18.4c-.09.1-.07-.12-.14-.11,0,.29-.12.13-.2.32.11,0,.16.1.12.27l.13-.24c.17.4-.25.35-.08.76l-.1-.13c.06.21,0,.78.25,1,0,0-.12.09-.14,0,0,.49.25,1.11.09,1.5l-.08,0c0,.09.14.16.06.27s-.08,0-.08,0,.12.25.07.36l-.08-.1c-.11.43.13.75.16,1.17-.22,0-.31.39-.35.59h0a5.13,5.13,0,0,0,.28,1.54c-.23.35,0,1.14-.15,1.66,0-.08.18,0,.2.1s.17.33,0,.32v0c-.19.1-.13.34-.14.54l.27,0a1.34,1.34,0,0,0-.14.88c0,.38.08.61-.09.77.06.13.06.29.13.41H7.31a4.32,4.32,0,0,0,0,1l-.1-.09c0,.25.42.3.43.53l-.21.07c0,.42-.16.86,0,1.27,0,0-.09,0-.1-.09,0,.2-.13.77.16.69-.19,0,0,.43.06.66l-.14,0c.17.19.22.2.26.47,0,.06-.11.05-.07,0-.09.2.12.17,0,.41l-.08-.1c0,.22,0,.19.11.34a.39.39,0,0,1-.15.46.27.27,0,0,1,.14.28s-.08,0-.1-.06c-.1.36.15.55,0,.8a.08.08,0,0,0-.08,0,3.37,3.37,0,0,1,0-.5c-.13,0-.15.22-.33,0,.09.18.29.51.23.74l0,0v0a.19.19,0,0,0,0,.15.65.65,0,0,0,0,.19c-.11,0-.07.27-.08.39.14,0,.12.14.24,0,0,0,0,0,0-.1a.11.11,0,0,1,0-.05h0V54.2a.25.25,0,0,1,0,.32l.22.17c-.2.16-.31.46-.43.51.06.36,0,.86.3,1.08,0,.11-.07.12-.11.16s0-.13-.07-.16c.07.21.05.62.24.66-.06.28-.18-.14-.12.23l-.06,0a1.61,1.61,0,0,0,0,.4,2.49,2.49,0,0,0,.12.47,1.21,1.21,0,0,1,0,1c0-.06,0-.08.06-.09-.16.87.25,1.83-.07,2.64-.07.27.05.3.14.46l-.15.06.2.26c.15.37-.26.68,0,1l.1,0c0,.15,0,.5-.11.45s.1.07,0,.12H7.67a1.21,1.21,0,0,0,.11.48c0,.35-.35,0-.24.52,0,.09.15.23.17.14a.06.06,0,0,1,.06,0,.24.24,0,0,0,.11,0C7.94,65,8,65,8,65s0,0-.06,0h.36a.41.41,0,0,1,.21,0s.07,0,.1,0,0-.07,0-.17v-.12c-.08-.09-.14-.14-.2-.2l.09-.09.05.17c.08-.13,0-.16-.1-.22a.17.17,0,0,0,.11-.09,1.92,1.92,0,0,1-.23-.19c.1,0,.18.05.24,0-.1-.06-.22,0-.27-.08.13-.11.21,0,.15-.24.07,0,.1,0,.11.1,0-.16,0-.41-.09-.5.14-.16-.06-.53.16-.53a1.18,1.18,0,0,1-.23-.35c.29.17,0-.43.26-.39-.25-.14-.12-.46-.22-.82,0,0,0,.07,0,.11a1.22,1.22,0,0,1,.14-.38c-.19,0-.24-.28-.36-.42.18-.21.23.12.41,0-.16,0-.17-.35-.3-.28.11-.16,0-.14.21-.22-.24,0,0-.14-.2-.27.12-.23.23-.06.15-.31S8.71,59.7,8.71,59.7Zm-.42-5.83h0v0Zm0-.5c0,.06,0,.14,0,.22s-.09,0-.09-.06S8.26,53.44,8.31,53.37Zm-1,1c0-.08,0-.11,0-.12v.14h0Z"/><path class="cls-1" d="M7.48,54.53s0,0,0,0l0,0,0,0Z"/><path class="cls-1" d="M7.62,9.86h0l0,0Z"/><polygon class="cls-1" points="8.58 46.54 8.55 46.54 8.58 46.59 8.58 46.54"/><path class="cls-1" d="M8.29,7.17a.05.05,0,0,0,0,0Z"/><path class="cls-1" d="M8.33,6l0-.17C8.35,5.86,8.34,5.91,8.33,6Z"/><path class="cls-1" d="M8.34,5.05,8.28,5h.06Z"/><path class="cls-1" d="M8.46,19.43a0,0,0,0,0,0,0C8.49,19.54,8.48,19.48,8.46,19.43Z"/><path class="cls-1" d="M8.19,15.13a.91.91,0,0,1,.07.14C8.27,15.19,8.27,15.13,8.19,15.13Z"/><polygon class="cls-1" points="8.76 24.19 8.76 24.19 8.76 24.22 8.76 24.19"/><path class="cls-1" d="M8.26,15.47a.27.27,0,0,0,0-.2A.45.45,0,0,0,8.26,15.47Z"/><path class="cls-1" d="M8.4,1h0V1s0,0,0,0h0Z"/><path class="cls-1" d="M8.37,1h0Z"/><path class="cls-1" d="M8.29.92s0,0,0,0h0A.06.06,0,0,0,8.29.92Z"/><path class="cls-1" d="M8.55,2.4l0,0Z"/><path class="cls-1" d="M8.53,2.79c0-.09.14-.22.11-.35l0,0C8.68,2.49,8.46,2.7,8.53,2.79Z"/><path class="cls-1" d="M7.69,4.24l0-.31c-.05,0-.13.12-.14,0C7.43,4.3,7.71,3.83,7.69,4.24Z"/><path class="cls-1" d="M7.66,5.2c0-.16-.08,0-.11,0S7.62,5.33,7.66,5.2Z"/><path class="cls-1" d="M7.61,12H7.48C7.5,12.1,7.53,12,7.61,12Z"/><polygon class="cls-1" points="8.28 13.28 8.36 13.16 8.24 13.1 8.28 13.28"/><polygon class="cls-1" points="7.38 14.07 7.36 14.01 7.42 14.22 7.38 14.07"/><path class="cls-1" d="M7.44,25.42H7.6C7.59,25.33,7.41,25.29,7.44,25.42Z"/><path class="cls-1" d="M7.81,30.4a.2.2,0,0,0-.07.27C7.76,30.56,7.83,30.46,7.81,30.4Z"/><polygon class="cls-1" points="7.35 45.23 7.3 45.14 7.34 45.32 7.35 45.23"/><path class="cls-1" d="M118.71,60.76c0-.08,0-.13-.25-.06l-.18.16A.9.9,0,0,0,118.71,60.76Z"/><path class="cls-1" d="M117.43,60.42c-.21.08-.39.25-.26.39.16-.18.21-.12.41-.3.17,0,.28.08.25.14s.24.08.36,0a.75.75,0,0,0-.77-.11C117.36,60.49,117.41,60.45,117.43,60.42Z"/><path class="cls-1" d="M100.77,60h0Z"/><path class="cls-1" d="M90.35,60.23c.08,0,.11,0,.11,0S90.33,60.21,90.35,60.23Z"/><path class="cls-1" d="M88.57,60.06h.11A.22.22,0,0,0,88.57,60.06Z"/><path class="cls-1" d="M100.77,60l-.28,0S100.63,60,100.77,60Z"/><path class="cls-1" d="M115.22,61.35a.5.5,0,0,0,.16-.05l-.15,0Z"/><path class="cls-1" d="M105.4,60.19h.08l.07-.06Z"/><path class="cls-1" d="M108.85,60.17c-.08,0-.1.14-.13.21a.25.25,0,0,1,.17-.11A.26.26,0,0,0,108.85,60.17Z"/><path class="cls-1" d="M114.43,60.76h0Z"/><path class="cls-1" d="M102.87,59.84a.1.1,0,0,0,0-.05Z"/><path class="cls-1" d="M4.37,61.26v0S4.34,61.27,4.37,61.26Z"/><path class="cls-1" d="M.61,60.47l0,.05.07,0Z"/><path class="cls-1" d="M85.34,59.82h0Z"/><path class="cls-1" d="M55.47,59.94c.34.12-.55.17,0,.3C55.38,60.19,55.89,60,55.47,59.94Z"/><path class="cls-1" d="M115.13,61.33h0Z"/><path class="cls-1" d="M55.43,60.24h0l.06,0Z"/><path class="cls-1" d="M77.78,60l.08.05S77.84,60,77.78,60Z"/><path class="cls-1" d="M83.41,60l-.14,0Z"/><path class="cls-1" d="M74.91,60.27a.33.33,0,0,0-.2,0l0,0A.19.19,0,0,1,74.91,60.27Z"/><path class="cls-1" d="M71.81,60.11l.06,0,.12,0Z"/><path class="cls-1" d="M13.44,61a.4.4,0,0,1-.13-.13C13.35,60.94,12.92,61,13.44,61Z"/><path class="cls-1" d="M115.22,61.27a.09.09,0,0,1-.09.06h.1S115.24,61.28,115.22,61.27Z"/><path class="cls-1" d="M74.77,61.37l-.49,0A3.68,3.68,0,0,0,74.77,61.37Z"/><path class="cls-1" d="M35.09,61H35A.14.14,0,0,0,35.09,61Z"/><path class="cls-1" d="M72.8,61.26a1.34,1.34,0,0,0-.27-.13s0,0-.07,0Z"/><path class="cls-1" d="M13.31,60.84Z"/><path class="cls-1" d="M10.18,61.21c.46,0,.21-.19.31-.3.54-.07.25.13.44.22a7.36,7.36,0,0,1,.84-.23s.07,0,0,.08c.35-.16,1.05,0,1.47-.19l.05.05a.38.38,0,0,1-.06-.26c.21,0,.39-.1.46,0-.13,0-.14,0-.2.08l.21,0c.19.18-.29,0-.29.17l.64-.08h.3a3.23,3.23,0,0,0,.34,0s0,.06-.08.09a.79.79,0,0,1-.3,0c-.14,0-.23,0,0,.1l-.47-.11c.35.29-.29,0,0,.27a2.43,2.43,0,0,0,.82,0,2.13,2.13,0,0,1,.64-.09c.14-.11-.05-.14.08-.24.9-.22.72.39,1.39.16.17-.11.24-.33.72-.21l-.17.19c.63,0,.37-.27,1-.13-.12.07-.49.05-.4.08.43.16.31-.11.64-.1l.06.17c.67,0,1.42-.1,2.16-.11,0,.05-.17.1,0,.16a22.85,22.85,0,0,1,3,.17c.05,0,.15-.06.15-.08a.05.05,0,0,0,0,0l.09,0c.08,0,.15.08.06.1.36.09,0-.1.21-.14s.26.11.13.14a9.8,9.8,0,0,1,2.48,0l-.13,0c.52.06.58-.3,1.06-.17l-.09,0a21.74,21.74,0,0,1,3.2.08c.16-.21,1.1.08,1.17-.22a6,6,0,0,0,1.35.28c.23,0,.35-.19.64-.22v.15l.4-.16.21.18L35,61s-.21-.07-.17-.11a1.7,1.7,0,0,1,1,.24c.36,0,.71-.08,1.06-.12,0,.06-.2.08-.34.12.56-.16.1.17.61,0-.07,0,0-.09,0-.12a3.44,3.44,0,0,0,1.25,0l-.07.11c.77,0,1.6-.14,2.45-.19-.31,0-.25-.22,0-.25l.11.16c.15-.11-.26,0,.06-.19s.22.17,0,.24l.38-.08c0,.05-.06.08-.08.14.15-.11.67.14.88,0l0,0c.84,0,1.21-.08,1.89-.08,0-.14.29-.11.49-.21.5.06,1,.2,1.65.25.43,0,.13-.1.33-.16,0,.14.64.18.31.24a11.52,11.52,0,0,0,1.92,0c-.1,0-.22-.08-.16-.12s.39.06.36.12l0,0c1-.17,2.43.4,3.27.13h0l.87-.14c.39,0-.24.1.05.17.94-.22,1.48,0,2.25-.15.6.37,2.11-.07,2.91.16l0-.09c.21-.09.25.05.41.07,0-.07-.23-.08-.1-.13s.44,0,.66,0a1.89,1.89,0,0,1,.58,0l1.36.24c.91.17,1.83.33,2.74.43.67.06.4-.43,1.24-.19l-.25.16c1.35-.15,2.77.06,4.09-.22-.07,0-.07.1-.2.11.29.1,1-.08,1-.19.21,0,.06.08.19.12.29,0,.69-.25.86-.15,0,0-.08,0-.13.07.18-.08.86-.14.66-.24a2.88,2.88,0,0,0,.7-.15.13.13,0,0,1,.09,0,1.67,1.67,0,0,1,.32.08c.28-.11.86.17,1-.05,0,.23.87.23,1.19.12-.11.07.27.08.15.17.36,0,.68,0,.62-.16.67.27,1.32-.24,1.69.1,1-.16,2-.29,3-.39,0,.22-1,.07-1,.3a12,12,0,0,1,2.27-.33c.23,0-.12.1-.2.14.89-.12,1.71,0,2.48-.13,0,0-.08,0-.16.06.15,0,.35,0,.34-.06l-.15,0c-.24-.16.62-.27.66-.35-.29.28.78.11.34.46.1,0,.24-.06.22-.13.15,0,.2.07,0,.14.56,0,.37-.15.88-.12,0,0-.11.06-.16.12a1.9,1.9,0,0,1,1-.13s0,.07-.11.07a15.45,15.45,0,0,1,2.08-.14c-.24.22.28.07.32.26l.44-.06L89.17,61a6.6,6.6,0,0,1,1-.08l-.28.08.71-.05-.4-.06c.38-.11,0-.24.46-.2-.1,0,.38,0,.58.1h0a1.34,1.34,0,0,1,.66-.09c.08.06,0,.21,0,.25.18-.16.89-.07,1.12-.24-.08,0-.08.14,0,.16l.15-.13c.18,0,.2.05.18.13.53,0-.18-.23.45-.14,0,0,0,0-.12,0,.63,0,1.21-.11,1.8,0,.17.19-.51,0-.32.2.85,0,1.75-.23,2.56-.22h-.15c.1-.27.61.1,1,0-.1,0-.13.15-.1.12a13.87,13.87,0,0,0,2-.25l-.1.07c.32,0,.85,0,1.2,0,.11-.07.31-.06.18-.16,1.07.36,2.07-.17,3,.35-.13,0-.29,0-.2,0a8.09,8.09,0,0,0,.85.06c-.05-.12-.1-.08-.26-.19a1.29,1.29,0,0,1,.55-.06c-.38,0,0,.19.14.27,0,0,0-.08,0-.11.42.23.09-.22.67-.06l0,.06a3.72,3.72,0,0,1,.67-.08c.1.13-.23.06-.25.17.34,0,.66-.26,1-.14-.14,0-.34.05-.48.09a1.19,1.19,0,0,0,.62.12h0l.57,0-.15,0c.4-.38.85-.13,1.39-.4-.53.26-.08.13-.11.29.14,0,.36.06.3.11.26-.14.44.07.8-.12,0,0,.28,0,.22.12.34,0-.08-.08,0-.14a2,2,0,0,1,.9,0,3.29,3.29,0,0,0,1,.19,10.9,10.9,0,0,0,1.45-.12c.2.1-.19.16-.19.16a1.77,1.77,0,0,0,.91.06c-.06,0,0,.08.11.13.26,0,.16-.18.51-.14a.7.7,0,0,1-.25.22,4.14,4.14,0,0,0,.93-.33c.11.05-.16.18-.27.25a2.34,2.34,0,0,0,.62-.27c.22-.14.26-.25.28-.33l-.18.06c.08-.07.11.07,0,.14-.26.27-.46.15-.49.11l.21-.11c-.3-.16-.86.29-1.34.28l.17-.22a4.69,4.69,0,0,1-.45.18c-.1-.05-.16-.17.06-.2-.31-.11-.28.07-.54-.06,0,0,0,0,0,0l-.31,0c.07,0,0-.16.15-.11-.52-.17-.9,0-1.07-.16h0c-.76-.09-.11.14-.71.18-.1-.15-.19-.31-.28-.46l-.11.12c-.09,0-.26,0-.23-.1-.3.09,0,.06-.12.16-.39-.16-1.06.06-1.15-.18-.13.12.37.08,0,.17-.12-.25-.47.07-.82,0,.1-.14.43-.09.07-.19-.19.24-.68,0-1,.07,0,.18-.63.12-1.12.21,0-.06-.92-.07-1.37-.16l0,0c-.1.18-.56.12-.9.12,0-.11.09-.14.27-.18l-.31,0a.66.66,0,0,1-.39.06l.1-.12a6.77,6.77,0,0,1-1.43-.16c0,.12.4.41-.19.42,0-.07,0-.19.13-.2a.65.65,0,0,1-.28,0l.24-.09c-.25-.08-.14.08-.34,0,0-.1-.15-.08-.11-.16s.17.06.26,0a1.56,1.56,0,0,1-.6-.19c0,.06,0,.13-.18.14-.44,0-.15-.12-.4-.18s-.39,0-.4.15c-.13,0-.15-.07-.2-.11-.23.07-1,0-.79.2h0c-.73.17-1.53,0-2.25.09v0a9.44,9.44,0,0,0-1.27.2c-.13,0-.3-.08-.25-.14a1.75,1.75,0,0,1-.84,0c.33-.09-.12-.07.34-.07a2,2,0,0,0-1,0c.16-.12-.32-.16-.53-.12l.3.09a4.41,4.41,0,0,1-.63,0l.11-.17c-.9-.19-1.6.37-2.28.05-.23.12.48.07.28.21A6.44,6.44,0,0,1,92,60c-.56-.08-.51.25-1.1.2.08.06.15.22-.28.28s-.5-.24-.25-.29.15,0,.14,0,.3,0,.14-.11l0,.06c-.2-.06-.76,0-.63-.14-.3.06-.13.1.1.12-.52-.08-.81,0-1.34,0,.08,0,.16.11.07.11-.78-.08-.34.11-.87.13-.3-.09.11-.21-.43-.14-.32-.07-.06-.16.07-.21a2.89,2.89,0,0,1-1.18-.12l.25,0a1.88,1.88,0,0,1-.4,0l.14.12c-.15,0-.28,0-.27-.08-.16.07.11.2-.2.3-.2-.07-.61,0-.68-.12.63.08-.06-.16.47-.16a1.64,1.64,0,0,1-.37,0s0,0,.06,0c-.59-.16-.28.17-.9.13.08-.08-.14-.17-.24-.16.25,0,.12.16-.13.21-.41-.09-.45,0-.66,0l.24,0c-.08.08-.29.07-.57.09,0-.07.26,0,.16-.08-.32.15-.72-.16-1.16,0-.2-.06,0-.17-.2-.21-.49.13-.54-.1-1,0,.15.12.18.09-.18.22l.84-.12-.53.2c.25,0,.53-.1.69-.08-.26.1-.23.07-.11.16-.35-.16-.69.13-1.09,0V60c-.62-.11-1.07.2-1.86.16l.26,0c-.1.12-.49,0-.74.1,0-.1-.14-.13-.25-.19s-.57,0-.63.22l-.36-.12c-.63,0-.71.3-1.31.28.18-.11-.1-.18.31-.26-.21,0-.39,0-.39,0s-.56.14-.74,0-.12.14-.34.13c0,0,0,0,0,0s-.36.06-.16.17a3.16,3.16,0,0,0-1.16-.21,3.53,3.53,0,0,1-.59-.07l-.31-.08c-.1,0-.24,0-.31,0a10.09,10.09,0,0,1-1.32.32s0-.05.07-.05c-.55,0-.29.34-.93.31-.33-.13.32-.13.12-.17-.12-.3-.75.13-1.18,0l.1,0c-.33-.1-.78.17-1.3.16,0,0,0,0,0,0a5.37,5.37,0,0,1-1.55.27c.16-.13.23-.07.14-.2-.23,0,.06.21-.4.24-.14-.07-.47-.15-.51-.29h.43c-.21-.18-.55,0-.78,0l0-.08c-.65,0-.67.19-1.38.12l.07.07c-.4.16-.31-.13-.71,0l-.1-.21a11.38,11.38,0,0,1-1.36.09,6.42,6.42,0,0,1,1.15-.19,3,3,0,0,0-1,0,.65.65,0,0,1,.34,0,2.59,2.59,0,0,1-1.24.07c.06-.18-.26-.25-.63-.32a3.58,3.58,0,0,0-.64-.07.92.92,0,0,1-.44-.13,24.14,24.14,0,0,1-2.83,0c.38.29-.3,0-.23.32-.24,0-.33,0-.36,0l-.74-.17c-.17-.08.23-.07.21-.14-.53,0-.22-.12-.58-.2.08.11-.18.16-.48.13l.43.13c-.74.18-.65-.25-1.39-.07l.23-.1a6.14,6.14,0,0,0-1.79.25c-.06,0-.15-.12,0-.14a20.2,20.2,0,0,1-2.75.07l.07-.08c-.17,0-.3.13-.51,0,0,0,.08-.07,0-.08a1.7,1.7,0,0,1-.67,0l.19-.07a10.62,10.62,0,0,0-2.13.08c0-.23-.7-.33-1.06-.38v0a13.77,13.77,0,0,0-2.78.3,20.28,20.28,0,0,0-3-.07c.15,0,0,.17-.18.2s-.62.18-.59,0H38c-.18-.19-.63-.12-1-.12l-.05.26a4.52,4.52,0,0,0-1.62-.15c-.64,0-1.11.07-1.39-.11-.23.07-.51.07-.74.14v-.14a12.71,12.71,0,0,0-1.74,0l.16-.11c-.45,0-.55.42-1,.44L30.56,60a9.9,9.9,0,0,0-2.31.06s0-.09.15-.1c-.36,0-1.39-.13-1.26.16,0-.19-.79,0-1.21.06L26,60a1.53,1.53,0,0,1-.85.25c-.11,0-.1-.12.06-.08-.38-.09-.31.12-.77,0l.18-.07a.79.79,0,0,0-.59.09c-.32,0-.77,0-.84-.15a.59.59,0,0,1-.5.14s0-.08.09-.09c-.66-.11-1,.13-1.44,0a.11.11,0,0,0-.08-.08c.53,0,1,0,.92,0s-.43-.17-.08-.33a4,4,0,0,1-1.36.2l0-.05h0a.57.57,0,0,0-.26,0l-.35,0c0-.11-.49-.07-.7-.08,0,.14-.27.1,0,.23,0,0,0,0,.19,0h.61a.78.78,0,0,1-.59,0l-.3.21c-.29-.2-.85-.33-.93-.45a5.44,5.44,0,0,0-2,.3c-.18,0-.21-.07-.28-.11a1.54,1.54,0,0,0,.29-.07c-.37.07-1.12.06-1.2.26-.48,0,.26-.19-.4-.1l.08-.07h-.79a5.56,5.56,0,0,0-.82.09,4,4,0,0,1-1.8,0c.1,0,.15,0,.17.06-1.6-.17-3.32.32-4.84,0-.47-.08-.52,0-.8.14l-.11-.15-.47.21c-.67.18-1.19-.15-1.94.06l.1.11c-.28,0-.92,0-.85-.16s-.12.08-.22,0V60.2a2.2,2.2,0,0,0-.82.1c-.6,0,.06-.37-.85-.18a1.49,1.49,0,0,0-.25.13l-.08.06h0s0,.08,0,.12v.17c0,.09,0,0,0,0s.17,0,.25,0l0,0,0-.07c0-.05,0-.07,0-.05s0,.13-.11.1-.07,0-.08,0,0,0,0,0,0,0,0,0,0,0,0,0a.69.69,0,0,1,0-.13c-.09-.07-.17-.18-.28-.2s-.12,0-.21.09L0,60.52a.45.45,0,0,0,0,.16v.12a.6.6,0,0,0,.13.25.57.57,0,0,0,.38.21H.7l.2,0L1.3,61l.16.08-.34.09c.23.05.32-.07.45-.16a.24.24,0,0,0,.19.1,2.2,2.2,0,0,1,.4-.23c0,.09-.16.17,0,.23a.2.2,0,0,0,0-.15s0-.1.11-.1.13.23.44.19c0,.06,0,.09-.16.1.27,0,.7.07.85,0,.27.15.9-.07.89.15A2.82,2.82,0,0,1,5,61c-.34.31.8-.09.72.22.27-.27,1-.13,1.54-.2a.21.21,0,0,1-.16,0,4.18,4.18,0,0,1,.64.16c0-.2.52-.25.77-.38.37.18-.22.24-.1.42,0-.16.64-.18.51-.31.29.11.24.05.4.21,0-.25.26,0,.49-.21.41.11.11.23.55.14C10.58,61.11,10.18,61.21,10.18,61.21Zm10.65-.42Zm.9,0h-.39s0-.1.09-.1S21.59,60.77,21.73,60.81Zm-1.87-1c.14,0,.19,0,.21,0h-.25l0,0A.11.11,0,0,1,19.86,59.78Z"/><path class="cls-1" d="M19.6,60h-.06l.08,0,.05,0Z"/><path class="cls-1" d="M100.9,60h0l0,0Z"/><polygon class="cls-1" points="34.14 61.1 34.14 61.06 34.06 61.09 34.14 61.1"/><path class="cls-1" d="M105.8,60.88l.07,0S105.84,60.89,105.8,60.88Z"/><path class="cls-1" d="M108,60.93l.31,0Z"/><path class="cls-1" d="M109.63,60.88s0-.05,0-.06h0Z"/><path class="cls-1" d="M83.5,61h-.07C83.29,61,83.39,61,83.5,61Z"/><path class="cls-1" d="M91.29,60.74a1,1,0,0,1-.25.07C91.18,60.82,91.29,60.82,91.29,60.74Z"/><polygon class="cls-1" points="74.83 61.38 74.83 61.37 74.77 61.37 74.83 61.38"/><path class="cls-1" d="M90.68,60.82a.72.72,0,0,0,.36,0A2.17,2.17,0,0,0,90.68,60.82Z"/><path class="cls-1" d="M116.84,61l.1,0a0,0,0,0,1,0,0Z"/><path class="cls-1" d="M116.93,60.92l0,0A.05.05,0,0,0,116.93,60.92Z"/><path class="cls-1" d="M117.05,60.79s-.06.05-.09.09S117,60.83,117.05,60.79Z"/><path class="cls-1" d="M114.48,61.28l0,0A.11.11,0,0,0,114.48,61.28Z"/><path class="cls-1" d="M113.79,61.23a2.17,2.17,0,0,0,.63.14l0,0C114.33,61.4,114,61.17,113.79,61.23Z"/><path class="cls-1" d="M111.13,60.2l.56,0c-.1-.06-.23-.13,0-.14C111,59.93,111.86,60.22,111.13,60.2Z"/><path class="cls-1" d="M109.39,60.2c.29-.05,0-.08,0-.11C109.21,60.15,109.16,60.17,109.39,60.2Z"/><path class="cls-1" d="M97,60.11l0-.12C96.82,60,97.05,60,97,60.11Z"/><polygon class="cls-1" points="94.66 60.8 94.89 60.88 94.99 60.76 94.66 60.8"/><polygon class="cls-1" points="93.25 59.91 93.35 59.89 92.96 59.95 93.25 59.91"/><path class="cls-1" d="M72.51,60l0,.16C72.7,60.14,72.75,60,72.51,60Z"/><path class="cls-1" d="M63.5,60.53a.6.6,0,0,0-.5-.09A3.88,3.88,0,0,0,63.5,60.53Z"/><polygon class="cls-1" points="36.53 59.9 36.7 59.84 36.37 59.89 36.53 59.9"/><path class="cls-2" d="M112.73,60.24c.08-.06,0-.2-.18-.17l-.17.23Z"/><path class="cls-2" d="M111.26,59.79c-.26.1-.56.3-.4.51.26-.22.32-.12.6-.38.22,0,.38.08.34.16s.34.06.47-.08a1.12,1.12,0,0,0-1-.06C111.16,59.89,111.24,59.83,111.26,59.79Z"/><path class="cls-2" d="M89.78,59.5l.14,0Z"/><path class="cls-2" d="M76.48,59.45c.1,0,.14,0,.15-.05S76.46,59.43,76.48,59.45Z"/><path class="cls-2" d="M74.21,59.18l.14,0C74.29,59.18,74.24,59.16,74.21,59.18Z"/><path class="cls-2" d="M89.78,59.5l-.35-.07C89.4,59.5,89.61,59.48,89.78,59.5Z"/><path class="cls-2" d="M108.3,60.31a.6.6,0,0,0,.19-.06l-.18,0Z"/><path class="cls-2" d="M95.65,59.25h.1s.06-.06.09-.09Z"/><path class="cls-2" d="M100.15,59.18c-.1,0-.14.19-.18.28a.38.38,0,0,1,.22-.14S100.18,59.24,100.15,59.18Z"/><path class="cls-2" d="M107.29,59.51l.13,0Z"/><path class="cls-2" d="M92.42,59.24a.1.1,0,0,0,0-.07A.1.1,0,0,0,92.42,59.24Z"/><path class="cls-2" d="M9.15,6.22h0S9.15,6.18,9.15,6.22Z"/><path class="cls-2" d="M9.79,1V1a.4.4,0,0,0,.11,0Z"/><path class="cls-2" d="M70.07,58.88h0C70.2,58.86,70.14,58.86,70.07,58.88Z"/><path class="cls-2" d="M32,57.08c.41.21-.72.17-.09.42C31.86,57.42,32.53,57.24,32,57.08Z"/><path class="cls-2" d="M108.18,60.29h0Z"/><path class="cls-2" d="M31.92,57.5h0l.06,0Z"/><path class="cls-2" d="M60.53,58.58a.38.38,0,0,0,.09.09S60.6,58.62,60.53,58.58Z"/><path class="cls-2" d="M67.63,59.21l-.18,0Z"/><path class="cls-2" d="M56.82,58.62a.53.53,0,0,0-.26,0l0,0A.24.24,0,0,1,56.82,58.62Z"/><path class="cls-2" d="M53,58.38l.07,0h.12Z"/><path class="cls-2" d="M9.75,17.91a.64.64,0,0,1,.17-.19C9.78,17.79,9.71,17.22,9.75,17.91Z"/><path class="cls-2" d="M108.29,60.2a.13.13,0,0,1-.11.09h.13A.06.06,0,0,0,108.29,60.2Z"/><path class="cls-2" d="M56.56,60.16,56,60.09A4.9,4.9,0,0,0,56.56,60.16Z"/><path class="cls-2" d="M11.08,45.6l0-.14A.33.33,0,0,0,11.08,45.6Z"/><path class="cls-2" d="M54.14,60a1.17,1.17,0,0,0-.34-.16l-.07,0Z"/><path class="cls-2" d="M9.92,17.72Z"/><path class="cls-2" d="M9.3,13.71c0,.58.27.26.42.38.1.69-.18.33-.3.57.08.43.33.76.34,1.08,0,0-.06.09-.11,0,.22.45.06,1.36.33,1.89a.14.14,0,0,1-.06.07.46.46,0,0,1,.35-.09c0,.26.18.48,0,.58,0-.16-.07-.17-.13-.24l.09.27c-.24.25-.1-.37-.28-.37a6.55,6.55,0,0,1,.27,1.56c-.24.1-.12-.95-.31-.4l.07-.64c-.36.5,0-.38-.37.08,0,.83.15.92.11,1.76.14.18.19-.07.33.11.28,1.18-.56.95-.22,1.81.17.22.47.3.34.92l-.28-.2c0,.81.4.45.25,1.3-.11-.15-.11-.63-.14-.51-.19.56.17.39.18.81l-.23.09c.06.86.27,1.8.35,2.75-.07,0-.16-.21-.22,0a17.88,17.88,0,0,1,0,3.73l.22.43c0,.11-.08.2-.13.09-.06.45.13,0,.22.23s-.1.34-.17.18a8.33,8.33,0,0,1,.29,3.11l-.07-.16c0,.66.46.72.29,1.33l0-.11a25.27,25.27,0,0,1,0,4.08c.31.19,0,1.42.37,1.48a6.79,6.79,0,0,0-.29,1.75c0,.31.29.44.36.81l-.21,0,.26.49-.23.3.09.36c0-.15.07-.32.13-.3a2.21,2.21,0,0,1-.09,1.42c.13.45.28.89.44,1.32-.09,0-.17-.23-.27-.4.39.68-.2.19.17.81,0-.11.14,0,.18,0A3.55,3.55,0,0,0,12.1,50l-.18,0a9.16,9.16,0,0,0,1.94,2.84c-.24-.36,0-.45.27-.23l-.07.26c.25.06-.18-.32.25-.11.28.33,0,.4-.21.26a4.48,4.48,0,0,0,.44.32c0,.07-.14,0-.22,0,.24.05.55.8,1,.8l0,.07a13.25,13.25,0,0,0,2.27,1.32c.11-.16.41,0,.73,0a10.58,10.58,0,0,0,2,1c.57.09.21-.1.49-.13,0,.19.75.41.31.41a12.49,12.49,0,0,0,2.41.48c-.11-.1-.24-.17-.15-.21s.46.19.41.26h-.06c1.37,0,3,1.13,4.12.9h-.06l1.13,0c.5.09-.32.09,0,.25,1.23-.15,1.88.25,2.89.14.72.6,2.71.19,3.71.56l-.06-.13c.28-.11.32.09.51.13,0-.1-.28-.13-.11-.19a63.18,63.18,0,0,1,6.92.6c.84.07.51-.62,1.56-.28l-.31.22c1.71-.2,3.45.14,5.12,0-.1,0-.11.11-.27.1.34.19,1.29.08,1.31-.06.25,0,.05.13.2.21.35.12.89-.17,1.07,0s-.1.05-.16.06c.23-.07,1.06.08.85-.13.62.13,1.19,0,1.68.13.34-.19,1.06.17,1.18-.13-.06.32,1.08.33,1.48.2-.14.09.33.12.17.25.45,0,.87,0,.8-.18.8.43,1.68-.2,2.12.31,1.34-.08,2.58-.13,3.79-.14-.06.32-1.33,0-1.3.3A14,14,0,0,1,65,60.29c.29.05-.17.12-.27.17,1.14-.07,2.2.13,3.23,0,0,0-.12.06-.22.08.2,0,.46.06.44-.08l-.19,0c-.32-.22.81-.41.84-.52-.35.4,1,.13.45.63.13,0,.3-.08.27-.18.2,0,.26.09.06.19.72-.06.47-.22,1.12-.2,0,.07-.14.09-.21.17a2.19,2.19,0,0,1,1.21-.19s0,.1-.13.09a16,16,0,0,1,2.64-.2c-.31.3.35.1.4.36l.56-.07L75,60.43a9.18,9.18,0,0,1,1.33-.1l-.36.11.91,0-.51-.1c.49-.13,0-.33.59-.25-.13,0,.49,0,.74.15h0a1.52,1.52,0,0,1,.85-.1c.09.08-.08.29,0,.34.24-.22,1.14-.06,1.44-.3-.1.06-.1.2-.07.22l.2-.17c.23,0,.26.08.22.19.68,0-.21-.33.59-.19-.06,0,0,0-.16.07.8.07,1.56-.12,2.3,0,.22.26-.65.07-.4.29,1.07,0,2.22-.33,3.25-.28l-.19,0c.14-.37.77.18,1.29,0-.12,0-.16.21-.13.17a15.46,15.46,0,0,0,2.52-.23l-.13.09c.42.08,1.1,0,1.55.08.14-.1.39-.08.24-.22,1.39.53,2.65-.32,3.89.13-.15,0-.35.08-.24.08l1-.1c-.08-.16-.14-.09-.36-.22a1.43,1.43,0,0,1,.69-.17c-.47.11,0,.26.21.34,0,0,0-.1,0-.15.55.28.09-.33.84-.14l0,.09a3.36,3.36,0,0,1,.84-.14c.13.18-.3.09-.31.24.42,0,.83-.36,1.22-.18-.18.06-.44.06-.62.11a1.47,1.47,0,0,0,.78.2h0l.72.1-.19-.06c.53-.49,1.09-.1,1.8-.42-.69.3-.11.17-.16.39.18,0,.46.12.38.18.34-.18.56.13,1-.12,0,.06.36,0,.29.17.44,0-.11-.12-.07-.2.68-.24,1.59.28,2.57-.05.84-.13,1-.36,1.78-.47.26.11-.22.25-.22.25a2.63,2.63,0,0,0,1.15,0c-.08.06,0,.11.12.18.32,0,.22-.24.64-.14a1,1,0,0,1-.32.27c.38-.06.75-.18,1.14-.24.11.12-.23.18-.37.26.44-.05,1.14-.1,1.28-.29l-.28-.07c.16,0,.08.16,0,.2-.38.14-.55-.07-.57-.14l.28,0c-.28-.41-1.12,0-1.68,0l.24-.29-.58.24c-.13-.07-.21-.24.07-.28-.4-.14-.36.1-.7-.06,0,0,0,0,0-.05l-.39.09c.07-.06-.07-.21.17-.17-.7-.17-1.14.22-1.41,0l.06,0c-1,.1-.09.21-.83.47l-.49-.53-.1.21c-.1,0-.3,0-.26-.1-.38.14.06.09-.16.23-.49-.2-1.34.09-1.45-.25-.18.17.46.12-.06.24-.15-.36-.6.07-1-.1.13-.19.55-.09.11-.26-.27.32-.87-.06-1.25,0,0,.26-.81.11-1.44.2A13.53,13.53,0,0,0,97,59.31l0-.05c-.11.26-.71.22-1.15.27,0-.15.09-.21.33-.28h-.42a.77.77,0,0,1-.49.16l.1-.19a7.38,7.38,0,0,1-1.82.12c0,.17.57.49-.18.62,0-.1,0-.27.14-.31a.76.76,0,0,1-.36,0l.3-.16c-.32-.07-.17.14-.42.12,0-.13-.2-.09-.16-.2s.23,0,.32,0a1.69,1.69,0,0,1-.76-.21c0,.08,0,.19-.21.21-.55,0-.19-.17-.51-.23-.13.09-.49,0-.49.2-.16,0-.19-.09-.26-.15-.28.1-1.33,0-1,.26h0a22.9,22.9,0,0,1-2.87,0v-.07a9.86,9.86,0,0,0-1.62.21c-.17,0-.39-.12-.32-.21a2.22,2.22,0,0,1-1.08,0c.42-.13-.15-.11.43-.09a2.17,2.17,0,0,0-1.26,0c.2-.18-.42-.22-.68-.16l.39.12a5.47,5.47,0,0,1-.81,0l.14-.23c-1.13-.28-2,.49-2.89,0-.29.16.62.11.35.3a7.07,7.07,0,0,1-1.22-.36c-.71-.13-.66.34-1.4.25.09.08.18.31-.37.38s-.64-.35-.31-.41c.12,0,.18,0,.18,0,.17,0,.39-.07.18-.16l-.07.08c-.25-.08-1-.07-.8-.21-.39.08-.16.14.12.18-.66-.12-1,0-1.71-.09.1,0,.2.14.1.14-1-.11-.45.16-1.13.19-.38-.13.15-.3-.54-.2-.42-.09-.08-.22.08-.29a3.37,3.37,0,0,1-1.51-.16l.33-.06a1.9,1.9,0,0,1-.52,0l.18.17c-.19,0-.35,0-.35-.1-.2.1.15.28-.25.42-.25-.09-.78.08-.86-.15.8.09-.09-.22.59-.24a1.57,1.57,0,0,1-.48,0s0,0,.08-.06c-.76-.22-.36.24-1.16.21.11-.12-.17-.24-.31-.22.33,0,.15.22-.15.3-.5-.11-.55.06-.82,0l.3.06c-.11.12-.36.09-.72.12,0-.1.33-.06.2-.1-.4.2-.89-.26-1.44-.14-.26-.1,0-.24-.24-.3-.63.13-.66-.2-1.32-.1.18.17.21.13-.25.27L65.23,59l-.7.21c.33,0,.69-.07.88,0-.33.13-.29.09-.15.23-.43-.27-.88.1-1.38-.09l0-.41c-.75-.23-1.37.14-2.37,0l.32.09c-.14.15-.62,0-.94,0,0-.14-.16-.2-.3-.29,0,.1-.73-.06-.83.21l-.44-.21c-.8-.12-.94.34-1.72.24.25-.13-.1-.25.43-.32-.26,0-.49-.06-.5,0-.15-.09-.73.14-1,0-.12.05-.16.19-.45.16,0,0,0-.07,0-.07s-.47.07-.22.24c-.77-.48-2.23-.11-2.9-.52-.57,0-1.26,0-1.77,0,0,0,0-.07.1,0-.7-.17-.46.37-1.26.18-.4-.24.44-.1.19-.19-.09-.47-1,0-1.51-.29l.13,0c-.41-.17-1,.13-1.7.07,0,0,0,0,0-.07a6.76,6.76,0,0,1-2,.29c.21-.17.3-.08.18-.27-.29,0,.08.3-.51.32-.18-.1-.6-.21-.65-.4h.55c-.27-.26-.71,0-1-.08l0-.1c-.84,0-.86.27-1.77.21l.09.09c-.5.25-.4-.18-.91,0l-.13-.29a15.5,15.5,0,0,1-1.75.25,7.26,7.26,0,0,1,1.46-.37,3.38,3.38,0,0,0-1.27.1.9.9,0,0,1,.43,0,3.27,3.27,0,0,1-1.58.25c.14-.53-1.68-.21-2.12-.65a18.88,18.88,0,0,1-3.57-.27c.43.46-.39,0-.34.41-.31,0-.43,0-.45,0L31,57.16c-.21-.15.3-.07.28-.17-.66-.09-.26-.2-.69-.36.07.16-.26.19-.63.09l.52.26c-1,.12-.77-.44-1.73-.34l.31-.09a7.58,7.58,0,0,0-2.28,0c-.08-.06-.17-.19,0-.19-1.12-.23-2.59-.11-3.41-.53l.11-.09c-.22,0-.41.1-.64-.07,0,0,.11-.08,0-.11a1.73,1.73,0,0,1-.85-.11l.27,0a17.64,17.64,0,0,0-2.62-.53c.12-.28-.63-.72-1-1l0,0a32.63,32.63,0,0,1-3-1.47c-.35-.68-1.6-1.81-1.9-2.93,0,.18-.23.09-.34-.09s-.48-.61-.2-.67l0,.09c.18-.28,0-.76-.15-1.18l-.38,0c.23-1.2-.65-3-.22-3.72-.12-.29-.14-.65-.25-.93h.2a20.27,20.27,0,0,0-.12-2.2l.15.19c0-.56-.61-.67-.66-1.19l.29-.17a11.65,11.65,0,0,0-.17-2.95.21.21,0,0,1,.15.2c0-.46.11-1.8-.28-1.61.26,0,0-1-.17-1.54l.2.07a2,2,0,0,1-.43-1.07c0-.15.15-.14.11.06.08-.5-.2-.38-.12-1l.13.22a.91.91,0,0,0-.23-.74c-.09-.32,0-1,.19-1.05a.72.72,0,0,1-.22-.64c.06-.05.11.06.13.11.1-.85-.28-1.25-.11-1.85a.14.14,0,0,0,.12-.1,10.56,10.56,0,0,1,0,1.17c.18,0,.19-.55.46-.13a4.17,4.17,0,0,1-.41-1.7.16.16,0,0,1,.06-.08l0,.06a.91.91,0,0,0,0-.34,3.42,3.42,0,0,0,0-.44c.14-.07.05-.63.05-.9-.19,0-.18-.33-.33,0,0-.05,0,0,0,.23a.81.81,0,0,0,0,.11h0c0,.18,0,.41,0,.67a.88.88,0,0,1-.1-.74,4.39,4.39,0,0,1-.33-.36c.26-.39.38-1.11.55-1.22a6.85,6.85,0,0,0-.53-2.47c-.06-.23.09-.27.15-.36,0,.13,0,.3.1.37-.11-.47-.09-1.4-.35-1.51.1-.6.25.33.18-.49l.08.11c.36-1.63-.75-2.6-.29-4.4,0,.12,0,.18-.08.21.16-2.05-.38-4.19-.11-6.22.05-.57-.12-.63-.26-1l.21-.14-.28-.58c-.22-.84.45-1.49,0-2.55l-.13.15c0-.38-.16-1.21,0-1.16a.23.23,0,0,1-.09-.27l.11,0-.25-.93c0-.74.45.09.39-1C10.43,1.51,10.1.8,10,1s0,.42-.15.44L9.8,1c-.33,0-.68-.3-.84.61l.24.6-.14.21L9,1.93c-.13.31,0,.49.12.69A.38.38,0,0,0,9,2.89l.35.59c-.12.08-.27-.26-.32.15.17.28.27-.29.4.18-.13.3-.26.22-.11.56-.08.06-.14,0-.19-.15.12.3.1.82.28,1-.16.32.11,1-.2,1a2.18,2.18,0,0,1,.3.81c-.4-.5,0,1.07-.37,1,.35.37.21,1.38.43,2.06,0,0-.09-.11-.07-.17a2.93,2.93,0,0,1-.16.75c.28,0,.37.63.55.94-.25.49-.34-.27-.58-.11.22,0,.25.81.43.64-.15.37-.07.31-.29.51.35.05.08.33.3.62-.15.53-.32.15-.19.72C9.45,14.21,9.3,13.71,9.3,13.71Zm1.08,13.6h0l0-.28Zm0,1.15V28c.06,0,.14,0,.14.11C10.51,28,10.48,28.28,10.43,28.46ZM11.7,26c0,.18,0,.24,0,.26l0-.31,0,0A.14.14,0,0,1,11.7,26Z"/><path class="cls-2" d="M11.43,25.67s0,0,0-.07l0,.1.06.07Z"/><path class="cls-2" d="M89.94,59.53h0l0,0Z"/><polygon class="cls-2" points="10.87 44.31 10.92 44.31 10.87 44.21 10.87 44.31"/><path class="cls-2" d="M96.26,60.14a.13.13,0,0,0,.09,0Z"/><path class="cls-2" d="M99,60.17l.38.06A2.4,2.4,0,0,0,99,60.17Z"/><path class="cls-2" d="M101.09,60.25l0-.08h0Z"/><path class="cls-2" d="M67.73,60.53h-.08C67.45,60.57,67.58,60.56,67.73,60.53Z"/><path class="cls-2" d="M77.67,60.19a1.7,1.7,0,0,1-.32.1C77.53,60.3,77.67,60.31,77.67,60.19Z"/><polygon class="cls-2" points="56.63 60.17 56.63 60.17 56.56 60.16 56.63 60.17"/><path class="cls-2" d="M76.89,60.28a1.2,1.2,0,0,0,.46,0A1.41,1.41,0,0,0,76.89,60.28Z"/><path class="cls-2" d="M110.16,60.35h.1s0,0,0,0Z"/><path class="cls-2" d="M110.27,60.32l.12,0C110.33,60.3,110.29,60.3,110.27,60.32Z"/><path class="cls-2" d="M110.62,60.25l-.23,0C110.47,60.3,110.57,60.31,110.62,60.25Z"/><path class="cls-2" d="M107.39,60.24l0,.07A.09.09,0,0,0,107.39,60.24Z"/><path class="cls-2" d="M106.55,60.25a2.57,2.57,0,0,0,.78.11l0,0C107.23,60.41,106.74,60.13,106.55,60.25Z"/><path class="cls-2" d="M103,59.38l.71,0c-.13-.07-.29-.18,0-.19C102.88,59,104,59.4,103,59.38Z"/><path class="cls-2" d="M100.84,59.28c.38,0,0-.11,0-.16C100.61,59.2,100.55,59.21,100.84,59.28Z"/><path class="cls-2" d="M85,59.41l0-.17C84.74,59.26,85,59.3,85,59.41Z"/><polygon class="cls-2" points="81.98 60.36 82.27 60.47 82.4 60.3 81.98 60.36"/><polygon class="cls-2" points="80.19 59.09 80.31 59.07 79.83 59.13 80.19 59.09"/><path class="cls-2" d="M53.66,58.25l.08.23C53.94,58.45,54,58.2,53.66,58.25Z"/><path class="cls-2" d="M42.17,57.92a.65.65,0,0,0-.64-.1A4.66,4.66,0,0,0,42.17,57.92Z"/><path class="cls-2" d="M13,47.09l.12.19c0-.12-.1-.25-.14-.38Z"/><path class="cls-1" d="M164.68,1.29s-.14,0-.13,0l.17.05Z"/><path class="cls-1" d="M164.39,1.87c.08.11.21.25.37.18-.16-.12-.09-.15-.28-.27,0-.1.05-.17.11-.16s0-.15-.08-.19a.33.33,0,0,0,0,.45S164.42,1.88,164.39,1.87Z"/><path class="cls-1" d="M164.16,11.07l0-.06S164.16,11,164.16,11.07Z"/><path class="cls-1" d="M164,16.78s0-.06,0-.06S164,16.79,164,16.78Z"/><path class="cls-1" d="M163.84,17.76l0-.05S163.83,17.75,163.84,17.76Z"/><path class="cls-1" d="M164.16,11.07l-.06.15C164.15,11.23,164.14,11.14,164.16,11.07Z"/><path class="cls-1" d="M164.68,3.13l0-.08v.08Z"/><path class="cls-1" d="M164,8.57v0l-.07,0Z"/><path class="cls-1" d="M163.94,6.61s.13.07.19.08a.13.13,0,0,1-.1-.09Z"/><path class="cls-1" d="M164.12,3.57l0-.06Z"/><path class="cls-1" d="M164,9.94,164,10Z"/><path class="cls-1" d="M165,64h0S165,64,165,64Z"/><polygon class="cls-1" points="164.31 66.11 164.28 66.13 164.2 66.15 164.31 66.11"/><path class="cls-1" d="M163.66,19.56h0C163.65,19.5,163.65,19.53,163.66,19.56Z"/><path class="cls-1" d="M163.77,35.93c.12-.19.16.3.3,0C164,36,163.85,35.7,163.77,35.93Z"/><path class="cls-1" d="M164.66,3.18v.08A.11.11,0,0,0,164.66,3.18Z"/><path class="cls-1" d="M164.07,35.94h0v0Z"/><path class="cls-1" d="M163.72,23.64l.06,0S163.75,23.61,163.72,23.64Z"/><path class="cls-1" d="M164,20.59l0,.08S164,20.61,164,20.59Z"/><path class="cls-1" d="M163.9,25.24a.16.16,0,0,0,0,.12l0,0A.08.08,0,0,1,163.9,25.24Z"/><polygon class="cls-1" points="163.94 26.86 163.97 26.83 163.97 26.78 163.94 26.86"/><path class="cls-1" d="M164.94,58.91a.57.57,0,0,1-.13.08C164.91,59,165,59.2,164.94,58.91Z"/><path class="cls-1" d="M164.6,3.13a.08.08,0,0,1,.06.05V3.13Z"/><path class="cls-1" d="M165,25.3v.26A2,2,0,0,0,165,25.3Z"/><path class="cls-1" d="M164.92,47.05l0,.06A.08.08,0,0,0,164.92,47.05Z"/><path class="cls-1" d="M165,26.32a.6.6,0,0,0-.09.15l0,0Z"/><path class="cls-1" d="M164.81,59Z"/><path class="cls-1" d="M165.15,60.71c0-.25-.18-.11-.29-.16-.05-.3.14-.15.23-.25s-.22-.32-.21-.46,0,0,.08,0c-.15-.19,0-.59-.19-.81a.05.05,0,0,1,0,0,.62.62,0,0,1-.25,0c0-.12-.12-.21,0-.26s.05.08.09.11l-.06-.12c.18-.11.06.16.19.15,0-.16-.12-.34-.15-.49v0a.48.48,0,0,1,0-.17c.09,0,.1.1.11.18v0c0,.08,0,.12.1,0l-.07.27c.27-.22,0,.17.27,0a.73.73,0,0,0,0-.25v.08A1.51,1.51,0,0,1,165,58c-.09-.09-.13,0-.23-.07-.17-.52.43-.38.2-.77-.11-.1-.33-.15-.21-.41l.19.1c0-.35-.28-.21-.15-.57.08.06.07.27.09.22.15-.23-.11-.17-.11-.35l.17,0c0-.37-.15-.78-.18-1.19,0,0,.1.09.16,0a4.64,4.64,0,0,1,.12-1.62l-.15-.19s.07-.08.1,0c.05-.2-.1,0-.15-.1s.08-.15.12-.08a2.27,2.27,0,0,1-.11-1.34l0,.07c.06-.28-.3-.31-.17-.57l0,.05a6,6,0,0,1,.15-1.75c-.21-.09.09-.61-.2-.64.14-.35.2-.25.3-.74,0-.13-.19-.2-.22-.36H165l-.16-.22.19-.12,0-.15c0,.06-.07.13-.12.12-.07-.24.1-.58.18-.58l-.13-.55c.06,0,.08.1.12.17-.16-.29.16-.05,0-.32,0,0-.09,0-.12,0a1.11,1.11,0,0,0,.06-.67l.11,0c0-.41,0-.88,0-1.34a.13.13,0,0,1-.25,0l.17,0c-.1-.09-.07.14-.19,0,0-.18.19-.12.24,0l-.05-.22c.05,0,.07,0,.13.05-.1-.08.17-.36,0-.49h0c0-.47,0-.69-.06-1.07-.14,0-.11-.16-.23-.27a4,4,0,0,0,.12-.94c-.08-.24-.12-.07-.21-.17.13,0,.11-.36.2-.19a4.65,4.65,0,0,0-.13-1c0,.06-.07.12-.11.09s0-.21.11-.2v0c-.19-.56.38-1.33.11-1.78v0l-.14-.47c0-.22.1.12.18,0-.21-.5,0-.81-.11-1.22.38-.34,0-1.16.21-1.6l-.09,0c-.08-.12.06-.14.08-.23s-.08.13-.13.06a16.4,16.4,0,0,1,.11-3c0-.36-.46-.2-.26-.65l.17.12c-.21-.71,0-1.47-.15-2.17,0,0,.09,0,.08.11.13-.14,0-.54-.07-.55s.09,0,.14-.09-.13-.37,0-.45,0,.05,0,.07.05-.44-.1-.36a1,1,0,0,0,0-.37,1.06,1.06,0,0,0,0-.26.88.88,0,0,1,0-.16c-.16-.13.06-.45-.16-.48.23,0,.17-.47.07-.63.07.05.07-.15.16-.08,0-.19,0-.37-.16-.34.27-.35-.21-.71.14-.9a12.86,12.86,0,0,1-.23-1.62c.22,0,0,.57.25.55a3.51,3.51,0,0,1-.21-1.26c0-.13.09.07.13.11-.09-.49,0-.95-.1-1.39,0,0,0,.05.07.09s0-.2-.08-.19l0,.08c-.14.14-.32-.34-.39-.35.29.14.07-.43.44-.21,0-.05-.06-.12-.13-.11s.06-.11.13,0c-.05-.3-.16-.19-.16-.47,0,0,.07.06.13.09a.63.63,0,0,1-.15-.52s.07,0,.07.06c0-.4-.26-.68-.17-1.13.22.13.07-.15.26-.18l-.06-.23-.09.09c0-.2-.13-.39-.07-.57l.08.16,0-.39-.07.22c-.09-.21-.23,0-.18-.25,0,.05,0-.21.11-.32h0a.4.4,0,0,1-.07-.36c0-.05.2,0,.24,0-.15-.1,0-.49-.21-.62a.15.15,0,0,0,.16,0l-.13-.08c0-.1.06-.11.14-.1,0-.29-.24.1-.13-.25,0,0,0,0,0,.07.06-.34-.08-.67,0-1,.18-.1,0,.27.2.17a7.54,7.54,0,0,1-.17-1.39l0,.08c-.26-.07.14-.33,0-.56,0,.06.15.08.12.06a4.33,4.33,0,0,0-.13-1.08l.07.06a4.9,4.9,0,0,0,.07-.67c-.07-.06-.05-.17-.15-.1.39-.61-.21-1.15.07-1.7,0,.07.07.15.06.1l-.09-.44c-.11,0-.06.06-.15.16a.4.4,0,0,1-.13-.29c.08.2.18,0,.24-.09s-.07,0-.11,0c.2-.24-.23,0-.1-.36l.06,0c0-.12-.11-.23-.09-.36s.06.13.17.14c0-.18-.25-.36-.12-.53a2.68,2.68,0,0,1,.07.27.45.45,0,0,0,.15-.33h0l.07-.3,0,.08c-.34-.24-.05-.47-.27-.78.21.3.12.05.27.08s.1-.2.14-.17c-.12-.14.1-.24-.08-.45,0,0,0-.16.13-.12,0-.19-.08,0-.14,0s0-.32,0-.52l0-.14a1.05,1.05,0,0,0,0-.18.71.71,0,0,0-.1-.3c-.12-.34-.29-.4-.39-.73.08-.12.18.08.18.08a.61.61,0,0,0,0-.48c.05,0,.08,0,.14-.05s-.18-.1-.1-.27a.72.72,0,0,1,.19.13c0-.15-.13-.31-.16-.47s.12.1.17.16a1.11,1.11,0,0,0-.13-.54l-.08.12c0-.07.12,0,.14,0s-.08.2-.13.21V2.45c-.31.09,0,.48,0,.7l-.2-.1.17.25c0,.05-.17.09-.2,0-.1.18.07.15,0,.3s0,0,0,0l.07.17c-.05,0-.15,0-.12-.07-.11.31.18.48,0,.61l0,0c.11.42.16,0,.36.33l-.35.25.15,0s0,.13-.07.11c.1.16.06,0,.16.06-.13.21.07.58-.18.62.12.08.09-.19.17,0-.26.06,0,.26-.08.45-.14-.06-.06-.24-.18-.06.22.13-.06.37,0,.54.19,0,.07.35.13.62-.06,0-.11.51-.17.77h0c.19,0,.16.31.2.5-.11,0-.15,0-.2-.14v.19a.27.27,0,0,1,.12.21l-.13,0c0,.25.19.46.11.77.13,0,.35-.26.44.06-.07,0-.18,0-.21,0s.06.09,0,.15l-.12-.12c0,.14.1.07.09.18s-.07.08-.15.07,0-.1,0-.14a.5.5,0,0,1-.14.32.11.11,0,0,1,.14.09c0,.23-.12.08-.17.22s0,.2.15.21c0,.07-.07.08-.11.1s0,.57.17.44v0h0c.14.4-.1.83,0,1.23h-.05a3.36,3.36,0,0,0,.13.7c0,.07-.09.16-.15.13a.62.62,0,0,1,0,.47c-.09-.19-.08.06-.06-.19-.05.24-.13.29,0,.54-.13-.08-.16.18-.12.3L164,14a1,1,0,0,1,0,.35l-.16-.06c-.2.48.34.87,0,1.24.12.13.09-.26.22-.15,0,.22-.26.45-.26.52-.09.31.24.29.18.61.06-.05.22-.09.27.15s-.25.28-.29.14,0-.08,0-.08-.05-.16-.11-.08l.06,0c-.06.11-.05.42-.15.35.05.17.1.07.13-.05a4.44,4.44,0,0,0-.06.74c0-.05.1-.1.1-.05-.08.43.11.19.14.48s-.22-.06-.14.24c-.07.18-.16,0-.21,0,.11.26-.08.5-.1.65l0-.14a1,1,0,0,1,0,.23l.12-.09c0,.09,0,.16-.07.16s.2-.07.31.09c-.07.12.06.34-.1.38.06-.35-.16,0-.18-.25a.37.37,0,0,1,0,.21s0,0-.05,0c-.14.33.18.14.18.49-.09,0-.17.08-.15.14,0-.14.15-.07.22,0s.05.24.05.35l0-.13c.09,0,.08.15.1.31s0-.14-.07-.09c.15.17-.17.38-.06.62-.06.11-.17,0-.21.11.11.26-.13.28,0,.56.12-.08.09-.09.2.11l-.08-.46.17.29c0-.13-.07-.29,0-.37.1.14.07.12.17.06-.18.19.1.38,0,.6l-.29,0c-.14.33.14.59.06,1l0-.14c.12.06,0,.27.06.41s-.14.07-.2.13,0,.32.19.36l-.14.19c-.05.35.28.4.25.73-.11-.1-.18.05-.26-.17,0,.11,0,.21.05.21s.13.31,0,.42.15.06.14.19H164c.05,0,.07.19.18.08-.31.33.06,1-.21,1.22,0,.25,0,.55,0,.77,0,0-.05,0,0,0-.11.3.27.2.16.54-.17.18-.08-.18-.14-.08-.33,0,0,.43-.17.66l0-.06c-.11.18.12.44.09.73a.08.08,0,0,0-.05,0,2.12,2.12,0,0,1,.27.86c-.13-.09-.07-.13-.2-.07,0,.12.21,0,.24.21-.06.08-.12.26-.26.29V30.4c-.18.13,0,.31,0,.44l-.08,0c0,.37.23.37.23.76l0,0c.2.21-.1.19.05.4l-.19.07a5.52,5.52,0,0,1,.25.73,2.11,2.11,0,0,1-.33-.61c0,.14,0,.48.13.55s-.07-.13,0-.18a1,1,0,0,1,.26.66c-.39,0-.06.71-.37.93a6.81,6.81,0,0,1,0,1.55c.3-.22,0,.16.32.12,0,.13,0,.18,0,.19l-.18.41c-.09.1-.07-.12-.14-.11,0,.3-.13.13-.21.32.11,0,.16.1.12.27l.14-.24c.16.4-.26.36-.1.77l-.09-.13c0,.21,0,.78.24,1,0,0-.12.09-.14,0,0,.51.26,1.12.11,1.51l-.08,0c0,.09.14.16.07.28s-.08,0-.08,0a.6.6,0,0,1,.09.38l-.09-.11c-.1.5.23.75.29,1.15-.22,0-.29.39-.32.58h0a7.37,7.37,0,0,0,.26,1.49c-.24.32-.12,1.11-.26,1.63,0-.08.17,0,.19.11s.14.35-.06.33v0c-.2.09-.15.35-.16.55l.26,0c-.39.53.17,1.37-.19,1.66.07.12.07.28.13.4h-.14a4.87,4.87,0,0,0,0,1l-.1-.09c0,.24.41.3.42.53l-.21.07c0,.42-.19.85,0,1.26,0,0-.1,0-.1-.08,0,.2-.15.77.14.69-.19,0,0,.44.07.67l-.14,0c.18.19.22.2.27.47,0,.06-.11.05-.07,0-.07.21.13.16.06.42l-.09-.09c0,.22,0,.2.14.32s0,.41-.16.44a.25.25,0,0,1,.14.28s-.08,0-.09-.05c-.1.36.16.54,0,.79a.09.09,0,0,0-.08,0,2.93,2.93,0,0,1,0-.5c-.13,0-.15.23-.33.05.1.18.31.51.25.73l0,0,0,0a.22.22,0,0,0,0,.14,1.29,1.29,0,0,0,0,.19c-.1,0-.05.26-.06.38.14,0,.12.15.23,0s0,0,0-.1a.07.07,0,0,0,0,0h0v-.28c.07.09.13.19.05.31.09.07.19.13.23.17-.2.16-.3.46-.42.5.08.36.05.83.31,1.07,0,.1-.07.11-.11.15s0-.13-.06-.16c.06.2,0,.6.21.66-.09.25-.17-.16-.14.19l-.06-.05a.82.82,0,0,0-.07.33v.05c0,.52.48.91.16,1.56,0-.06,0-.08.07-.1-.17.88.15,1.8-.11,2.67,0,.24.07.26.16.41l-.15,0,.17.25c.12.37-.41.6-.17,1.1l.1-.06c0,.17.08.53,0,.51s.11.05.06.12H164a3,3,0,0,1,.15.38c-.07.3-.3,0-.35.37a1.47,1.47,0,0,0,.11.31l0,.06s0,.1,0,.1,0,0,.06,0,.07,0,.07,0,0,0,0,0,0-.11,0-.11.06-.07.1-.07v.09s0,.08.05,0a2,2,0,0,1,.34-.08s.09,0,.13,0,0,0,0,0v0h0s0,0,0,0a.44.44,0,0,0,.08-.1l-.12-.3.12-.09v.25c.12-.13,0-.23,0-.33a.2.2,0,0,0,.13-.12c-.07-.09-.15-.21-.23-.3.09,0,.19.11.23-.07-.11-.12-.19.13-.28-.08.1-.13.19-.1.09-.23.06,0,.1,0,.13.06-.08-.13-.05-.33-.17-.39.13-.12,0-.43.2-.41a.76.76,0,0,1-.17-.36c.26.24,0-.48.32-.41-.23-.17-.12-.64-.25-.93,0,0,.06.05,0,.08A1,1,0,0,1,165,62c-.19,0-.24-.27-.36-.4.19-.21.23.11.41,0-.16,0-.15-.34-.29-.27.12-.16.06-.14.22-.22-.24,0,0-.15-.19-.27.12-.23.23-.06.16-.31S165.15,60.71,165.15,60.71Zm-.43-5.82h0v0Zm0-.49v.21c-.05,0-.1,0-.1,0S164.68,54.47,164.72,54.4Zm-1,1c0-.07,0-.1,0-.11l0,.14h0A.09.09,0,0,1,163.75,55.42Z"/><path class="cls-1" d="M163.93,55.57s0,0,0,0l0-.05,0,0Z"/><path class="cls-1" d="M164.18,11h0l0,0Z"/><polygon class="cls-1" points="164.99 47.59 164.96 47.6 164.99 47.64 164.99 47.59"/><path class="cls-1" d="M164.59,8.29a.08.08,0,0,0,0,0Z"/><path class="cls-1" d="M164.62,7.13l0-.16A.9.9,0,0,0,164.62,7.13Z"/><path class="cls-1" d="M164.71,6.23h0Z"/><path class="cls-1" d="M164.9,20.52v0C164.93,20.64,164.92,20.58,164.9,20.52Z"/><path class="cls-1" d="M164.56,16.27a.83.83,0,0,1,.07.13C164.64,16.33,164.64,16.27,164.56,16.27Z"/><polygon class="cls-1" points="165.02 25.28 165.01 25.28 165.01 25.3 165.02 25.28"/><path class="cls-1" d="M164.62,16.6a.28.28,0,0,0,0-.2A.46.46,0,0,0,164.62,16.6Z"/><path class="cls-1" d="M164.74,2.41l0,0h0Z"/><path class="cls-1" d="M164.73,2.38V2.32S164.72,2.37,164.73,2.38Z"/><path class="cls-1" d="M164.72,2.18a.71.71,0,0,1,0,.14S164.76,2.22,164.72,2.18Z"/><path class="cls-1" d="M164.63,3.51h0Z"/><path class="cls-1" d="M164.66,3.86c0-.08.1-.21.07-.33h0C164.76,3.57,164.57,3.79,164.66,3.86Z"/><path class="cls-1" d="M164.11,5.39l0-.3c-.05,0-.13.12-.14,0C163.85,5.45,164.13,5,164.11,5.39Z"/><path class="cls-1" d="M164,6.32c0-.16-.07,0-.11,0S164,6.44,164,6.32Z"/><path class="cls-1" d="M164,13.12l-.13,0C163.92,13.23,164,13.1,164,13.12Z"/><polygon class="cls-1" points="164.69 14.42 164.77 14.3 164.65 14.24 164.69 14.42"/><polygon class="cls-1" points="163.78 15.19 163.76 15.14 163.81 15.35 163.78 15.19"/><path class="cls-1" d="M163.82,26.63l.15-.05C163.94,26.5,163.76,26.49,163.82,26.63Z"/><path class="cls-1" d="M163.9,31.53a.21.21,0,0,0-.05.29C163.86,31.7,163.92,31.59,163.9,31.53Z"/><polygon class="cls-1" points="163.72 46.3 163.66 46.2 163.71 46.39 163.72 46.3"/><path class="cls-1" d="M275.65,61.85c0-.07,0-.12-.26-.05a1.29,1.29,0,0,1-.17.16A.81.81,0,0,0,275.65,61.85Z"/><path class="cls-1" d="M274.37,61.52c-.21.08-.4.25-.26.39.16-.18.2-.12.41-.3.17,0,.28.08.25.14s.24.07.36,0a.73.73,0,0,0-.77-.11C274.29,61.59,274.35,61.55,274.37,61.52Z"/><path class="cls-1" d="M257.71,61.12l.11,0Z"/><path class="cls-1" d="M247.28,61.33c.08,0,.12,0,.12,0S247.27,61.31,247.28,61.33Z"/><path class="cls-1" d="M245.51,61.16h.1A.19.19,0,0,0,245.51,61.16Z"/><path class="cls-1" d="M257.71,61.12l-.29,0C257.41,61.14,257.57,61.12,257.71,61.12Z"/><path class="cls-1" d="M272.16,62.45l.16-.05-.15,0Z"/><path class="cls-1" d="M262.33,61.29h.09l.07-.06Z"/><path class="cls-1" d="M265.78,61.27c-.08,0-.09.14-.12.21a.25.25,0,0,1,.17-.11A.19.19,0,0,0,265.78,61.27Z"/><path class="cls-1" d="M271.37,61.86h0Z"/><path class="cls-1" d="M259.8,60.94a.05.05,0,0,0,0,0A.09.09,0,0,0,259.8,60.94Z"/><path class="cls-1" d="M161.3,62.36s0,0,0,0S161.27,62.37,161.3,62.36Z"/><path class="cls-1" d="M157.55,61.57l0,0,.07,0Z"/><path class="cls-1" d="M242.28,60.92h0C242.38,60.91,242.33,60.91,242.28,60.92Z"/><path class="cls-1" d="M212.41,61c.34.12-.55.17,0,.3C212.32,61.29,212.83,61.11,212.41,61Z"/><path class="cls-1" d="M272.06,62.43h0Z"/><path class="cls-1" d="M212.37,61.34Z"/><path class="cls-1" d="M234.72,61.11l.08,0S234.78,61.13,234.72,61.11Z"/><path class="cls-1" d="M240.35,61.12l-.14,0Z"/><path class="cls-1" d="M231.85,61.37a.33.33,0,0,0-.2,0l0,0A.19.19,0,0,1,231.85,61.37Z"/><path class="cls-1" d="M228.74,61.21l.06,0,.13,0Z"/><path class="cls-1" d="M170.38,62.07a.53.53,0,0,1-.13-.13C170.29,62,169.86,62.06,170.38,62.07Z"/><path class="cls-1" d="M272.16,62.37a.1.1,0,0,1-.1.06h.11S272.18,62.38,272.16,62.37Z"/><path class="cls-1" d="M231.71,62.47l-.49,0A3.48,3.48,0,0,0,231.71,62.47Z"/><path class="cls-1" d="M192,62.13h-.12A.16.16,0,0,0,192,62.13Z"/><path class="cls-1" d="M229.74,62.36a1.11,1.11,0,0,0-.27-.13s-.05,0-.07,0Z"/><path class="cls-1" d="M170.25,61.94Z"/><path class="cls-1" d="M167.12,62.3c.46,0,.21-.18.3-.29.55-.07.26.13.45.22a5.42,5.42,0,0,1,.84-.23s.07,0,0,.08c.36-.16,1.06,0,1.48-.19l.05,0a.34.34,0,0,1-.06-.26c.2,0,.38-.1.45,0-.12,0-.13,0-.19.08l.21,0c.18.18-.29,0-.29.17l.64-.08h.3a3.23,3.23,0,0,0,.34,0s0,.06-.08.09a.79.79,0,0,1-.3,0c-.14,0-.23,0,0,.09l-.46-.1c.34.29-.29,0,0,.27a2.49,2.49,0,0,0,.83,0,1.81,1.81,0,0,1,.64-.09c.13-.11,0-.14.08-.25.9-.21.72.4,1.38.17.18-.11.25-.33.73-.21l-.17.19c.63,0,.36-.28,1-.13-.12.07-.49,0-.4.08.42.16.3-.11.63-.1l.07.17c.67,0,1.41-.1,2.16-.11,0,0-.17.1,0,.16a23,23,0,0,1,3,.17c.05,0,.15-.06.15-.08s0,0,0,0l.09,0c.08,0,.15.09.06.1.36.1,0-.09.2-.13s.27.11.14.14a9.8,9.8,0,0,1,2.48,0l-.13,0c.52.06.58-.3,1.06-.17l-.09,0a21.74,21.74,0,0,1,3.2.08c.16-.21,1.1.08,1.16-.22a6.27,6.27,0,0,0,1.35.28c.24,0,.36-.19.65-.22v.15l.4-.16.21.18a1,1,0,0,0,.22,0s-.2-.07-.16-.11a1.7,1.7,0,0,1,1,.24c.36,0,.71-.08,1.05-.12,0,.06-.19.08-.33.12.56-.16.1.17.61,0-.07,0,0-.09,0-.12a3.44,3.44,0,0,0,1.25,0l-.07.11c.76,0,1.6-.14,2.45-.19-.31,0-.25-.22,0-.25l.11.16c.15-.11-.27,0,.06-.19s.22.17,0,.24l.38-.08c0,.05-.06.08-.08.14.15-.11.66.13.88,0l0,0c.83,0,1.21-.08,1.89-.08,0-.14.28-.11.49-.21.5.06,1,.2,1.65.25.43,0,.13-.1.33-.16,0,.14.64.18.31.24a11.53,11.53,0,0,0,1.92,0c-.11,0-.22-.08-.16-.12s.39.06.36.12h0c1.05-.16,2.43.41,3.26.14h0l.86-.14c.4,0-.23.1.06.17.93-.22,1.48,0,2.25-.15.6.37,2.11-.07,2.91.16l-.05-.09c.21-.09.25.05.4.07,0-.07-.22-.08-.09-.13l.66,0a1.91,1.91,0,0,1,.58,0l1.36.24c.91.17,1.83.33,2.74.43.67.06.4-.43,1.23-.19l-.24.16c1.35-.15,2.77.06,4.09-.22-.08,0-.08.1-.21.11.29.1,1-.09,1-.19.21,0,.06.08.19.12.29,0,.69-.25.85-.15s-.07.05-.12.07c.18-.08.86-.14.66-.24a2.88,2.88,0,0,0,.7-.15.12.12,0,0,1,.09,0,1.67,1.67,0,0,1,.32.08c.28-.11.86.17,1,0-.05.23.87.23,1.19.12-.11.07.27.08.14.17.36,0,.69,0,.63-.16.66.27,1.31-.24,1.69.1,1-.16,2-.3,2.95-.39,0,.22-1,.07-1,.3a11.84,11.84,0,0,1,2.27-.33c.23,0-.12.1-.2.14.89-.12,1.71,0,2.48-.13,0,0-.09,0-.17.06.16,0,.36,0,.34-.06l-.15,0c-.24-.16.63-.27.67-.35-.29.28.78.11.34.46.1,0,.24-.06.21-.13.16,0,.21.07,0,.14.56,0,.37-.15.88-.12,0,0-.11.06-.17.12a2,2,0,0,1,1-.13s0,.07-.11.07a15.34,15.34,0,0,1,2.08-.14c-.24.22.27.07.32.26l.44-.06-.18-.09a6.6,6.6,0,0,1,1-.08l-.29.08.72,0-.41-.06c.39-.11,0-.24.47-.2-.11,0,.38,0,.58.1h0a1.34,1.34,0,0,1,.66-.09c.08.06,0,.21,0,.25.18-.16.89-.07,1.12-.24-.08,0-.08.14,0,.16l.15-.13c.18,0,.2.05.17.13.53,0-.17-.23.46-.14-.05,0,0,0-.13,0,.64,0,1.22-.11,1.8,0,.18.19-.51,0-.31.2.84,0,1.75-.23,2.56-.22h-.15c.1-.27.61.1,1,0-.1,0-.12.15-.09.12a13.59,13.59,0,0,0,2-.25l-.1.07c.33,0,.86,0,1.21,0,.1-.08.31-.06.18-.16,1.07.36,2.07-.17,3,.35-.12,0-.28,0-.19,0a8.09,8.09,0,0,0,.85.06c-.05-.12-.1-.08-.27-.19a1.36,1.36,0,0,1,.56-.06c-.38,0,0,.19.14.27,0,0,0-.08,0-.11.42.23.08-.22.67-.06l0,.06a3.72,3.72,0,0,1,.67-.08c.1.13-.24.06-.25.17.34,0,.65-.26,1-.14-.14,0-.34,0-.49.09a1.24,1.24,0,0,0,.63.12h0l.58,0-.15,0c.39-.38.84-.13,1.39-.4-.53.26-.08.13-.12.29.15,0,.37.06.31.11.25-.14.44.07.8-.12,0,.05.28,0,.22.12.34,0-.08-.08-.05-.14a2,2,0,0,1,.9,0,3.23,3.23,0,0,0,1,.19,10.9,10.9,0,0,0,1.45-.12c.2.1-.19.16-.19.16a1.77,1.77,0,0,0,.91.06c-.06,0,0,.07.11.13s.16-.18.51-.14a.7.7,0,0,1-.25.22,4.4,4.4,0,0,0,.92-.33c.12,0-.16.18-.26.25a2.34,2.34,0,0,0,.62-.27c.22-.14.25-.25.27-.33l-.17.06c.08-.07.11.07,0,.14-.26.27-.47.15-.49.11l.21-.11c-.3-.16-.86.29-1.35.28l.18-.22c-.14.07-.3.12-.45.18s-.16-.17.06-.2c-.31-.11-.28.07-.54-.06,0,0,0,0,0,0l-.31,0c.06,0,0-.15.15-.1-.53-.17-.9,0-1.07-.16h0c-.75-.09-.1.14-.7.18-.1-.15-.19-.31-.28-.46l-.11.12c-.09,0-.27,0-.23-.11-.3.1.05.07-.13.17-.38-.16-1.05.06-1.14-.18-.14.12.37.08,0,.17-.13-.25-.47.07-.82,0,.09-.14.43-.09.07-.19-.19.24-.68,0-1,.07,0,.18-.63.12-1.12.21,0-.06-.92-.07-1.37-.16l0,0c-.1.18-.56.12-.91.12,0-.11.09-.14.28-.18l-.31,0a.66.66,0,0,1-.39.06l.09-.12a7.4,7.4,0,0,1-1.42-.16c0,.12.4.41-.19.42,0-.07,0-.19.13-.2a.7.7,0,0,1-.29,0l.25-.09c-.25-.08-.14.08-.34,0,0-.1-.15-.08-.12-.16s.18.06.26,0a1.84,1.84,0,0,1-.6-.19c0,.06,0,.13-.17.14-.44,0-.15-.12-.41-.18-.1.07-.38,0-.39.15s-.15-.07-.2-.11c-.23.07-1.06.05-.8.2h0c-.73.17-1.53,0-2.25.09v0a9.44,9.44,0,0,0-1.27.2c-.13,0-.3-.08-.25-.14a1.88,1.88,0,0,1-.84,0c.33-.09-.12-.07.33-.07a1.92,1.92,0,0,0-1,0c.15-.12-.32-.16-.53-.12l.3.09a4.55,4.55,0,0,1-.64,0l.11-.17c-.89-.19-1.59.37-2.27.05-.23.12.48.07.28.21a7,7,0,0,1-1-.23c-.55-.08-.51.25-1.09.2.08.06.15.22-.28.28s-.51-.24-.25-.29c.1,0,.14,0,.14,0s.3,0,.14-.11l0,.06c-.2-.06-.76-.05-.63-.14-.3.06-.13.09.1.12-.52-.08-.81,0-1.35,0,.09,0,.17.11.08.11-.78-.08-.34.11-.87.13-.3-.09.11-.21-.43-.14-.32-.07-.07-.16.06-.21a2.93,2.93,0,0,1-1.18-.12l.26,0a3,3,0,0,1-.41,0l.15.12c-.15,0-.28,0-.27-.08-.16.07.11.2-.2.3-.2-.07-.62,0-.68-.12.63.08-.06-.16.47-.17a1.24,1.24,0,0,1-.38,0s0,0,.07,0c-.6-.17-.28.16-.91.13.09-.08-.13-.17-.23-.16.25,0,.11.16-.13.21-.41-.09-.45,0-.66,0l.24,0c-.09.09-.29.08-.57.1,0-.07.26,0,.15-.08-.31.15-.71-.16-1.15,0-.2-.06,0-.17-.2-.21-.49.13-.54-.1-1,0,.15.12.17.09-.18.22l.84-.12-.54.2c.26,0,.54-.1.69-.09-.25.11-.23.08-.1.17-.36-.16-.69.13-1.09,0v-.29c-.61-.11-1.06.2-1.85.16l.25,0c-.09.12-.48,0-.73.1,0-.1-.14-.13-.25-.19s-.57,0-.64.22l-.35-.12c-.63,0-.71.3-1.32.28.18-.11-.09-.18.31-.26-.2,0-.38,0-.38,0s-.56.14-.74,0-.12.14-.34.13c0,0,0,0,0,0s-.36.06-.16.17a3.16,3.16,0,0,0-1.16-.21,3.79,3.79,0,0,1-.6-.07l-.3-.08c-.11,0-.24,0-.32,0a9.59,9.59,0,0,1-1.31.32s0,0,.07,0c-.55,0-.3.34-.93.3-.34-.12.32-.12.11-.16-.11-.31-.74.12-1.18,0l.1,0c-.32-.1-.77.17-1.3.15,0,0,0,0,0,0a5.37,5.37,0,0,1-1.55.27c.16-.13.23-.07.13-.2-.22,0,.07.21-.39.24-.15-.07-.47-.15-.51-.29h.43c-.22-.19-.56,0-.78,0l0-.08c-.65,0-.67.19-1.38.12l.07.07c-.4.16-.31-.13-.71,0l-.1-.21a11.72,11.72,0,0,1-1.37.09,6.69,6.69,0,0,1,1.16-.19,3,3,0,0,0-1,0,.74.74,0,0,1,.33,0,2.45,2.45,0,0,1-1.24.08c.07-.18-.25-.25-.63-.32a3.48,3.48,0,0,0-.64-.07.91.91,0,0,1-.43-.13A24.14,24.14,0,0,1,213,61c.38.29-.3,0-.23.32-.24,0-.34,0-.36,0l-.74-.17c-.17-.08.23-.07.21-.14-.53,0-.23-.12-.58-.2.07.11-.18.16-.48.13l.42.13c-.74.18-.64-.25-1.39-.08l.24-.09a5.82,5.82,0,0,0-1.79.25c-.07,0-.15-.12,0-.14a18.43,18.43,0,0,1-2.74.06l.07-.07c-.17,0-.3.13-.51,0,0,0,.07-.07,0-.08a1.7,1.7,0,0,1-.67,0l.19-.07a11.41,11.41,0,0,0-2.13.07c0-.22-.71-.33-1.07-.37l0,0a13.77,13.77,0,0,0-2.78.3,20.32,20.32,0,0,0-3-.07c.15,0,0,.17-.18.2s-.62.18-.59,0H195c-.18-.19-.63-.12-1-.12l-.05.26a4.54,4.54,0,0,0-1.62-.15c-.65,0-1.11.07-1.39-.11-.23.07-.51.07-.74.14v-.14a12.71,12.71,0,0,0-1.74,0l.16-.11c-.45,0-.56.42-1,.44l-.13-.21a9.46,9.46,0,0,0-2.32.06.17.17,0,0,1,.16-.1c-.36,0-1.4-.13-1.26.16,0-.19-.79,0-1.21.06l.07-.14a1.55,1.55,0,0,1-.85.25c-.12,0-.1-.12,0-.08-.37-.09-.3.12-.76,0l.18-.07a.89.89,0,0,0-.6.08c-.31.06-.76,0-.83-.14a.57.57,0,0,1-.51.13s.06-.07.1-.09c-.66-.1-1,.14-1.45,0a.08.08,0,0,0-.07-.08c.53,0,1,0,.91,0s-.42-.17-.07-.34a3.77,3.77,0,0,1-1.36.21.12.12,0,0,1-.05-.05h0a.57.57,0,0,0-.26,0l-.35,0c0-.11-.49-.07-.7-.09,0,.15-.27.11,0,.24,0,0,0,0,.18,0h.61a.72.72,0,0,1-.58,0,2.7,2.7,0,0,1-.31.22c-.28-.2-.85-.33-.92-.45a5.41,5.41,0,0,0-2,.3c-.18,0-.22-.07-.29-.11a1.48,1.48,0,0,0,.3-.07c-.37.07-1.12.06-1.2.26-.49,0,.26-.19-.4-.1l.08-.07h-.79a5.56,5.56,0,0,0-.82.09,4,4,0,0,1-1.8,0c.1,0,.15,0,.17.06-1.6-.17-3.32.32-4.84-.05-.47-.08-.52.05-.8.14l-.11-.15c-.16.07-.32.13-.47.21-.67.18-1.2-.15-1.94.06l.1.1c-.29,0-.93,0-.86-.15a.18.18,0,0,1-.21,0V61.3a2.4,2.4,0,0,0-.82.09c-.61,0,.05-.36-.85-.17a1.19,1.19,0,0,0-.25.13l-.08.06h0s0,.08,0,.12v.17c0,.09,0,0,0,0s.17,0,.24,0v0l0-.08s0-.06-.05,0,0,.13-.1.1-.08,0-.09,0,0,0,0,0,0,0,0,0,0,0,0,0a.69.69,0,0,1,0-.13c-.1-.07-.17-.18-.28-.2a.26.26,0,0,0-.21.08,1.27,1.27,0,0,0-.07.12.4.4,0,0,0,0,.16v.12a.79.79,0,0,0,.12.25.59.59,0,0,0,.39.21h.19l.19,0,.41-.26.16.08-.35.09c.23.05.32-.07.46-.16a.24.24,0,0,0,.18.1,3.18,3.18,0,0,1,.4-.23c0,.09-.15.17.06.23a.2.2,0,0,0,0-.15s0-.1.11-.1.13.23.43.19c0,.06,0,.09-.15.1.27,0,.7.07.85-.05.27.15.9-.07.89.15a2.43,2.43,0,0,1,.64-.28c-.35.31.8-.09.71.22.28-.27,1-.13,1.55-.2a.24.24,0,0,1-.17,0,3.63,3.63,0,0,1,.64.16c.05-.2.52-.25.77-.38.38.18-.22.24-.1.42,0-.16.65-.18.52-.31.28.11.24,0,.39.21.05-.25.27-.05.49-.21.42.11.12.23.56.14C167.52,62.21,167.12,62.3,167.12,62.3Zm10.64-.41Zm.9,0h-.39s0-.1.1-.1S178.53,61.87,178.66,61.91Zm-1.86-1c.14,0,.19,0,.2,0h-.26A.12.12,0,0,1,176.8,60.88Z"/><path class="cls-1" d="M176.53,61.05h-.05l.08,0,.05,0Z"/><path class="cls-1" d="M257.83,61.14h0l0,0Z"/><polygon class="cls-1" points="191.08 62.2 191.08 62.16 191 62.19 191.08 62.2"/><path class="cls-1" d="M262.74,62l.07,0A.14.14,0,0,0,262.74,62Z"/><path class="cls-1" d="M264.92,62l.31,0Z"/><path class="cls-1" d="M266.57,62a.1.1,0,0,0,0-.06h0Z"/><path class="cls-1" d="M240.43,62.06h-.06C240.23,62.09,240.33,62.08,240.43,62.06Z"/><path class="cls-1" d="M248.23,61.84a1,1,0,0,1-.25.07C248.12,61.92,248.23,61.92,248.23,61.84Z"/><polygon class="cls-1" points="231.76 62.48 231.76 62.47 231.71 62.47 231.76 62.48"/><path class="cls-1" d="M247.62,61.92a.86.86,0,0,0,.36,0A2.17,2.17,0,0,0,247.62,61.92Z"/><path class="cls-1" d="M273.78,62.09l.09,0v0Z"/><path class="cls-1" d="M273.87,62l0,0S273.86,62,273.87,62Z"/><path class="cls-1" d="M274,61.89s-.06,0-.09.09S274,61.93,274,61.89Z"/><path class="cls-1" d="M271.41,62.38l0,0A0,0,0,0,0,271.41,62.38Z"/><path class="cls-1" d="M270.73,62.33a2.1,2.1,0,0,0,.63.14l0,0C271.27,62.5,270.89,62.27,270.73,62.33Z"/><path class="cls-1" d="M268.06,61.3l.56,0c-.09-.06-.22-.13,0-.14C268,61,268.8,61.32,268.06,61.3Z"/><path class="cls-1" d="M266.33,61.3c.29,0,0-.08,0-.11C266.14,61.25,266.1,61.27,266.33,61.3Z"/><path class="cls-1" d="M254,61.21l0-.12C253.76,61.11,254,61.13,254,61.21Z"/><polygon class="cls-1" points="251.6 61.9 251.82 61.97 251.93 61.86 251.6 61.9"/><polygon class="cls-1" points="250.18 61.01 250.28 60.99 249.9 61.05 250.18 61.01"/><path class="cls-1" d="M229.45,61.08l0,.16C229.64,61.24,229.69,61.07,229.45,61.08Z"/><path class="cls-1" d="M220.44,61.63a.6.6,0,0,0-.5-.09A3.6,3.6,0,0,0,220.44,61.63Z"/><polygon class="cls-1" points="193.46 60.99 193.64 60.94 193.31 60.99 193.46 60.99"/><path class="cls-2" d="M277.08,61.65c0-.1-.08-.13-.36.14a.78.78,0,0,1-.21.31A.81.81,0,0,0,277.08,61.65Z"/><path class="cls-2" d="M275.62,61.16a.31.31,0,0,1-.13-.19.41.41,0,0,1,.06-.29v.42a.25.25,0,0,0-.18.25l.06,0,0-.87a.66.66,0,0,0-.2.43.57.57,0,0,0,.06.29.42.42,0,0,0,.37.21c.16.13.25.28.18.34s.32.21.5.07c-.29-.24-.48-.32-.85-.59C275.48,61.09,275.58,61.17,275.62,61.16Z"/><path class="cls-2" d="M260.68,52l.09.09A.38.38,0,0,0,260.68,52Z"/><path class="cls-2" d="M250.75,47c.08,0,.12,0,.13,0S250.74,47,250.75,47Z"/><path class="cls-2" d="M249.26,46l.08.07S249.29,46,249.26,46Z"/><path class="cls-2" d="M260.68,52l-.22-.21C260.4,51.88,260.56,52,260.68,52Z"/><path class="cls-2" d="M273.42,60.42a.39.39,0,0,0,.18,0l-.15-.06Z"/><path class="cls-2" d="M265,54.28l.09,0,.11,0Z"/><path class="cls-2" d="M268.15,56.22c-.07,0-.18.13-.24.19a.29.29,0,0,1,.22,0A.41.41,0,0,0,268.15,56.22Z"/><path class="cls-2" d="M273.13,59.29l.1,0Z"/><path class="cls-2" d="M262.69,53.1a.09.09,0,0,0,0-.07A.15.15,0,0,0,262.69,53.1Z"/><path class="cls-2" d="M170.15,4.35l0,0S170.13,4.34,170.15,4.35Z"/><path class="cls-2" d="M166.71,1.47l0,0,.08-.08Z"/><path class="cls-2" d="M246.49,43.8h0C246.6,43.83,246.55,43.81,246.49,43.8Z"/><path class="cls-2" d="M218.4,28.81c.24.32-.62-.07-.23.35C218.16,29.07,218.75,29.12,218.4,28.81Z"/><path class="cls-2" d="M273.35,60.35a.67.67,0,0,1-.14-.09A.4.4,0,0,0,273.35,60.35Z"/><path class="cls-2" d="M218.17,29.16h0l0,0Z"/><path class="cls-2" d="M239.45,40.14a.27.27,0,0,0,0,.12A.27.27,0,0,0,239.45,40.14Z"/><path class="cls-2" d="M244.48,43.17l-.12-.09Z"/><path class="cls-2" d="M236.58,38.78c-.07-.05-.08-.09-.19-.12l0,0C236.46,38.69,236.51,38.71,236.58,38.78Z"/><path class="cls-2" d="M233.67,37.34a.43.43,0,0,0,0,.07l.1,0Z"/><path class="cls-2" d="M178.67,9.14a.63.63,0,0,1-.08-.23C178.58,9.06,178.06,8.89,178.67,9.14Z"/><path class="cls-2" d="M273.48,60.33a.13.13,0,0,1-.13,0l.1,0S273.49,60.35,273.48,60.33Z"/><path class="cls-2" d="M235.75,40.09l-.44-.25A4.31,4.31,0,0,0,235.75,40.09Z"/><path class="cls-2" d="M198.59,20.12l-.11,0A.12.12,0,0,0,198.59,20.12Z"/><path class="cls-2" d="M234,39.2a.82.82,0,0,0-.2-.25l-.07,0Z"/><path class="cls-2" d="M178.59,8.9h0Z"/><path class="cls-2" d="M175.39,7.47c.39.25.32-.1.49-.17.51.25.11.3.19.52.33.14.7.11.92.27,0,.05,0,.09-.05.1.42.05,1,.67,1.61.63a.28.28,0,0,1,0,.08.47.47,0,0,1,.07-.35c.21.09.45,0,.48.19-.14-.05-.17,0-.25,0h.25c.14.31-.34,0-.41.13l.39.06a1.2,1.2,0,0,0,.32,0,.67.67,0,0,1,.43.25c0,.11-.21,0-.34-.07s-.11-.05-.09.1c-.06-.09,0-.11-.24-.2.09.13.09.17.07.19s0,0-.09,0-.19-.05,0,.2c.14.05.07,0,.11.05l.22.12a2.11,2.11,0,0,1,.58.43c.2,0,.08-.19.28-.19.92.43.24,1,1,1.17.26,0,.49-.21.84.23l-.3.11c.59.42.54-.09,1.1.44-.17,0-.54-.2-.46-.12.32.43.37.05.7.22l0,.25a10.91,10.91,0,0,0,2.41.61c-.06.06-.22.09,0,.21l.66.09c.05,0,.07,0,.1.08l.28.28,1.14,1.15.44.06c.07,0,.09.17,0,.14.29.3.09-.09.3,0s.18.26,0,.23A10.28,10.28,0,0,1,191,16.13h-.15c.49.3.75-.13,1.15.24h-.1a13.85,13.85,0,0,0,1.73.64,2.23,2.23,0,0,1,1.24.75c.3-.18.9.7,1.19.39a5.14,5.14,0,0,0,1,1.13c.21.16.47,0,.76.13l-.11.19.49,0,.07.34.29.11c-.1-.07-.18-.21-.13-.26.45.17.93.71.9.81.36.13.72.24,1.09.34-.06.07-.25,0-.4,0,.63.06,0,.26.58.31,0-.08.09-.1.12-.14a2.85,2.85,0,0,0,1.22.61l-.14.11c.77.34,1.62.55,2.46.89-.27-.18-.11-.39.15-.32v.25c.21-.07-.22-.18.17-.21.3.15.11.32-.1.32l.41.08c0,.07-.1.07-.16.14.21-.07.57.48.89.34v.07c.83.35,1.22.44,1.89.73.09-.18.33,0,.59-.06.45.28.9.69,1.43,1,.42.14.2-.08.43-.07-.07.17.44.49.11.42.3.19.48.32.67.46a3.24,3.24,0,0,1,.31.24l.19.14a3.5,3.5,0,0,1,.25.28c0-.1,0-.19-.06-.24s0-.06.06-.06a1.06,1.06,0,0,1,.19.33c.07.09.11.17.07.19l-.08,0c.24.11.34.15.48.23a3.19,3.19,0,0,1,.38.26c.25.19.5.4.74.61a3,3,0,0,0,1.44.84h-.06l.91.27c.37.23-.29,0-.06.24,1,.21,1.38.77,2.2,1,.32.76,2,1,2.59,1.7l0-.13c.25,0,.19.19.32.29,0-.1-.15-.21,0-.21s.12,0,.16.07l.1.09.15.14c.2.17.41.35.61.5.42.32.83.63,1.25.91a26.79,26.79,0,0,0,2.53,1.61c.63.34.64-.41,1.33.24l-.33.1a11.73,11.73,0,0,1,2,.78l1,.45.49.2a.57.57,0,0,0,.17,0,1.6,1.6,0,0,1,.22.1c-.1,0-.14.05-.27,0,.18.34,1,.62,1.07.5.19.12,0,.13.07.26s.78.16.85.38c0,0-.1,0-.16,0,.21,0,.81.42.72.16.44.32.94.36,1.26.64.34-.07.76.48,1,.25-.17.26.69.62,1,.64-.14,0,.21.22,0,.28.33.17.65.27.68.1.4.65,1.33.41,1.4,1l.72.33.4.21.38.16,1.43.63c-.18.26-1-.51-1.12-.2a12.54,12.54,0,0,1,2.34.87c.19.15-.19.06-.29.07.91.32,1.63.86,2.45,1.09,0,0-.11,0-.2,0,.16.06.32.22.37.08l-.16,0c-.14-.31.79-.08.87-.16-.44.23.68.48,0,.73.11,0,.26,0,.28-.06.13.1.15.17,0,.19.55.22.45,0,.91.25,0,.06-.14,0-.23.07a1.53,1.53,0,0,1,1,.32c-.05,0,0,.09-.14,0a7,7,0,0,0,.87.38c.32.26.65.42,1,.73-.39.1.21.25.12.49l.47.17-.11-.2c.38.2.79.19,1.07.41l-.32,0,.73.27-.36-.27c.43,0,.09-.32.56,0-.11,0,.37.16.51.39h0a1.09,1.09,0,0,1,.69.17c0,.11-.17.24-.14.31.27-.12.89.31,1.21.2A.2.2,0,0,0,253,49l.22-.1c.15.13.16.16.09.25.49.26,0-.37.52,0,0,0,0,0-.15,0a7.58,7.58,0,0,1,1.6.89c0,.3-.43-.23-.41.06a2.07,2.07,0,0,1,.25.15l.34.23.25.08.16,0,.34.09a6,6,0,0,1,1.25.46l-.13-.09c.27-.29.51.43,1,.46-.11,0-.21.13-.17.1a15.12,15.12,0,0,0,1.94.78l-.14,0c.26.24.76.49,1,.73.14,0,.31.11.28-.08a2.08,2.08,0,0,0,.58.63,3.13,3.13,0,0,0,.77.45,2.11,2.11,0,0,1,1.42.63c-.1-.06-.28,0-.2,0a7.35,7.35,0,0,1,.77.32c0-.17,0-.14-.13-.34a.89.89,0,0,1,.57.16c-.39-.12-.14.21-.06.38,0-.05.08-.07.1-.12.2.5.25-.22.64.31l-.07,0a2.92,2.92,0,0,1,.65.3c0,.22-.26-.07-.36,0,.3.2.78.11,1,.42-.16,0-.35-.14-.5-.18.18.38.25.35.47.52l0,0c.16.13.33.26.51.38l-.12-.13c.49-.17.74.11,1.17.22l-.11-.17a.53.53,0,0,0,.25.39c-.29-.2-.31-.32-.33-.22s0,.22-.09.24c0,.26.21.52.11.5.37.15.36.52.87.56,0,.07.28.18.14.29.38.15,0-.15,0-.21.62.1,1.14.89,2.06.87.73.11.91-.1,1.58,0,.06.11,0,.13-.09.14l-.16,0a1.83,1.83,0,0,0,.76.47c-.09,0-.06.1,0,.22.25.12.29-.12.56.14a.9.9,0,0,1-.38.11c.32.11.67.14,1,.22,0,.15-.26.09-.4.1.38.13.92.29,1.1.18l-.18-.16c.12.05,0,.17-.11.16-.34,0-.39-.24-.38-.31l.24.06c-.06-.46-.89-.33-1.3-.62l.32-.15-.54,0c-.05-.12,0-.29.2-.21-.2-.3-.3-.07-.46-.37,0,0,0,0,0,0a.7.7,0,0,0-.37-.09c.09,0,0-.21.23-.11-.62-.32-1-.05-1.16-.33h.05c-.8-.17-.14.18-.81.21-.07-.21-.13-.43-.19-.64l-.15.17c-.08,0-.22-.12-.16-.19-.34,0,0,.11-.21.16-.29-.33-1-.43-.93-.77-.21,0,.25.31-.17.17.12-.36-.46-.23-.55-.63.21,0,.33.23.25-.09-.18,0-.25-.13-.19-.2l.06-.09-.26-.2a1.38,1.38,0,0,0-.44-.3c-.12.23-.65-.17-1.13-.36.06,0-.74-.63-1.07-1l0,0c-.23.16-.61-.19-1-.35.1-.12.19-.14.4-.08l-.3-.2a.81.81,0,0,1-.46-.09l.18-.12a14.67,14.67,0,0,1-1.5-.58c-.09.16.26.63-.36.53,0-.09,0-.26.21-.24-.05,0-.21,0-.3-.06l.3-.08c-.23-.15-.2.08-.37,0,.05-.12-.07-.14,0-.23s.09.09.19.07a.34.34,0,0,1-.2-.17,1.18,1.18,0,0,1-.11-.27c0,.08-.11.15-.27.06-.38-.28,0-.23-.22-.45-.14,0-.34-.24-.46-.08-.11-.07-.08-.17-.1-.24-.25-.07-1-.58-.86-.25l.05,0,0,0h0c-.78-.22-1.37-.9-2.12-1.16l0-.07a6.44,6.44,0,0,0-1.32-.4c-.12,0-.24-.24-.16-.3a1.7,1.7,0,0,1-.84-.34c.38,0-.07-.15.37.06-.2-.12-.31-.22-.44-.28l-.22-.08h-.19s.07-.05.07-.08,0-.07-.06-.14a1,1,0,0,0-.39-.29,3.46,3.46,0,0,1,.22.31c-.24-.14-.42-.29-.61-.42l.23-.13c-.76-.78-1.79-.38-2.26-1.1-.3,0,.43.31.14.4-.38-.21-.67-.69-.8-.74-.5-.35-.64.1-1.17-.22,0,.11,0,.34-.43.23s-.34-.53-.07-.48c.1,0,.13.08.11.1.14,0,.32.07.2-.08L251,47c-.16-.16-.69-.39-.51-.46-.32-.06-.18.07,0,.21-.44-.34-.75-.37-1.17-.71,0,.08.07.21,0,.16-.58-.5-.38,0-.81-.33-.15-.3.3-.12-.18-.45s0-.3.29-.12c-.13-.09-.18-.15-.28-.21l-.22-.12a2,2,0,0,1-.27-.23,5.23,5.23,0,0,0-.41-.41l.27.09a2.48,2.48,0,0,1-.4-.2l.05.23c-.12-.11-.24-.18-.2-.24-.21,0,0,.3-.4.26-.14-.18-.62-.24-.57-.47.56.4,0-.23.56,0a1,1,0,0,1-.36-.21s0,0,.09,0c-.48-.5-.38.07-1-.26.14-.07,0-.28-.14-.31.25.13,0,.24-.24.21-.34-.29-.45-.15-.65-.27l.21.16c-.13.07-.32,0-.6-.14,0-.1.27.06.19,0-.39.05-.56-.54-1-.62-.16-.17.08-.22-.06-.35-.53-.09-.42-.41-1-.54.06.22.1.2-.31.17l.85.3-.62,0c.23.12.55.16.68.26-.3,0-.26,0-.21.16-.21-.4-.72-.21-1-.56l.2-.36c-.47-.45-1.1-.33-1.76-.83l.19.19c-.16.09-.48-.25-.68-.3.1-.1,0-.24-.06-.38,0,.09-.53-.36-.74-.16l-.23-.36c-.56-.42-.88-.06-1.42-.42.24,0,0-.27.47-.14-.2-.11-.36-.23-.41-.15-.07-.14-.62-.12-.74-.33-.11,0-.2.13-.42,0,0,0,0-.06,0-.06s-.39-.09-.27.15c-.4-.69-1.69-.8-2-1.38-.45-.17-1-.38-1.36-.56.05,0,0-.06.1,0-.46-.38-.51.2-1-.25-.19-.36.36.06.22-.11.07-.23-.11-.3-.33-.39s-.24-.09-.35-.15a1.39,1.39,0,0,1-.31-.3l.17.07a.89.89,0,0,0-.33-.22,2.22,2.22,0,0,0-.33-.09,2.93,2.93,0,0,1-.77-.23.06.06,0,0,0,0-.06,5.1,5.1,0,0,1-1.67-.35c.23-.1.26,0,.25-.19-.24-.08-.06.29-.52.13-.11-.15-.39-.38-.35-.57l.42.18c-.11-.32-.54-.24-.74-.38l.07-.08c-.65-.27-.77,0-1.44-.37l0,.11c-.49.06-.24-.29-.69-.3V33a8.12,8.12,0,0,1-1.4-.41,7,7,0,0,1,1.24.2c-.23-.12-.79-.41-1-.36.1,0,.26,0,.33.12a2,2,0,0,1-1.27-.39c.19-.19-.08-.4-.38-.65a3.19,3.19,0,0,1-.42-.4,2,2,0,0,1-.24-.49c-.07-.07-.18-.08-.26-.13l-.18-.07-.33-.16c-.21-.11-.42-.24-.63-.37a11.47,11.47,0,0,0-1.35-.81c.16.55-.29-.14-.43.27-.24-.09-.32-.14-.33-.18l-.58-.58c-.11-.2.26,0,.29-.07-.49-.29-.13-.27-.41-.54,0,.17-.28.1-.53-.1l.31.38c-.81-.16-.44-.63-1.25-.8h.29c-.4-.12-1.31-.71-1.83-.61,0-.08-.06-.23.11-.17a9.82,9.82,0,0,0-1.39-.64,5.82,5.82,0,0,1-.66-.32c-.12-.05-.07-.06-.22-.35h.14c-.17-.17-.4-.16-.51-.43,0,0,.14,0,.07-.09a2.54,2.54,0,0,1-.71-.44l.26.05c-.77-.77-1.47-.67-2.22-1,.15-.27-.5-.72-.83-.93l0,0a12.61,12.61,0,0,0-2.87-.84c-.46-.55-2-.94-2.85-1.48.12.1-.11.21-.29.17s-.69-.05-.54-.3l.07,0c-.06-.32-.52-.44-.86-.61l-.21.31c-.65-.88-2.37-1-2.57-1.76-.25-.05-.5-.21-.75-.27l.12-.16a9.4,9.4,0,0,0-1.58-1l.23,0c-.42-.27-.82.17-1.21,0l0-.32L195,16a1.56,1.56,0,0,0-.41-.2l-.56-.24a3.3,3.3,0,0,0-1.17-.29.18.18,0,0,1,.21-.08c-.36-.13-1.26-.71-1.3-.29.1-.24-.73-.35-1.16-.45l.15-.14a1.28,1.28,0,0,1-.95-.09c-.1-.09,0-.19.1-.06-.29-.3-.37,0-.72-.36h.22c-.34-.23-.34-.16-.62-.17s-.61-.51-.54-.69a.53.53,0,0,1-.54-.17c0-.08.12,0,.16,0a2.06,2.06,0,0,0-.66-.51l-.38-.27a1.18,1.18,0,0,1-.45-.14.14.14,0,0,0-.05-.12l.52.09c.17.06.27.22.38.3s.21.2.19.2,0-.18,0-.27,0-.1,0-.12a.64.64,0,0,1,.21,0,2.77,2.77,0,0,1-.43-.23c-.16-.15-.42-.08-.64-.09a1.42,1.42,0,0,1-.75-.07.16.16,0,0,1,0-.07h0a.57.57,0,0,0-.26,0,2.1,2.1,0,0,0-.3-.15c0-.15-.43-.23-.62-.31-.06.19-.3,0-.12.3,0,0,0,0,.18,0h.07c.14,0,.31.11.51.16a.54.54,0,0,1-.58-.12,3,3,0,0,1-.4.18c-.18-.37-.61-.75-.59-.94-.62-.21-1.32-.77-1.89-.74-.18-.08-.11-.22-.13-.32.11.05.21.13.29.13-.36-.16-.92-.7-1.16-.56-.32-.4.37,0-.19-.41h.12a1.91,1.91,0,0,0-.86-.71,3,3,0,0,0-.48-.06l-.39,0A2.11,2.11,0,0,1,177.44,7c.07.08.1.12.09.17a9.16,9.16,0,0,0-2.21-1.44c-.39-.19-.85-.38-1.19-.54-.09-.06-.28-.25-.44-.39l-.49-.47c-.39-.33-.53-.21-.85-.24V3.8h-.57c-.71-.15-.93-1-1.86-1l0,.18-.26-.12a1.5,1.5,0,0,0-.36-.12c-.19,0-.33-.12-.27-.19s-.15.1-.23,0l0-.11a5.43,5.43,0,0,1-.76-.16c-.46-.37.29-.32-.4-.79-.28-.13-.9-.27-.85-.14s.21.26.15.35l-.27-.14c-.25.21-.68.32-.16,1l.57.16.07.23-.4-.26c.13.28.35.26.56.28a.37.37,0,0,0,.12.27c.21,0,.43,0,.64,0,0,.14-.34.12,0,.34.3,0-.1-.36.33-.27.19.24.07.33.43.32,0,.1-.07.12-.21.12.15,0,.38.06.5.07s.19,0,.29,0c.18.28.84.32.7.59a1.72,1.72,0,0,1,.73,0c-.54.16.77.38.49.7.42-.17,1,.37,1.53.53,0,0-.11,0-.14,0a1.5,1.5,0,0,1,.34.49.19.19,0,0,1,.2-.06,1.72,1.72,0,0,0,.36.09,2.69,2.69,0,0,0,.56,0c.22.4-.34.19-.34.48.08-.22.67.07.64-.15.18.28.18.19.2.45.21-.28.26.08.57,0,.27.36-.08.32.36.48C175.8,7.58,175.39,7.47,175.39,7.47Zm10.24,5.23h0l-.25-.05Zm.77.18c0-.06-.12-.05-.21-.07a.08.08,0,0,1,.09-.12C186.23,12.74,186.38,12.77,186.4,12.88ZM185,11.1c.14,0,.17.07.18.12l-.24-.06,0,0A.3.3,0,0,1,185,11.1Z"/><path class="cls-2" d="M184.68,11.26h-.06l.06.07.07,0Z"/><path class="cls-2" d="M260.78,52.14h0a.08.08,0,0,1,0,0S260.79,52.15,260.78,52.14Z"/><polygon class="cls-2" points="197.6 19.63 197.63 19.59 197.53 19.58 197.6 19.63"/><path class="cls-2" d="M265,55.31a.1.1,0,0,0,0,.08A.27.27,0,0,0,265,55.31Z"/><path class="cls-2" d="M266.85,56.66l.26.22A2.78,2.78,0,0,0,266.85,56.66Z"/><path class="cls-2" d="M268,57.33a.2.2,0,0,0,.1,0H268Z"/><path class="cls-2" d="M244,44.4l-.06,0C243.76,44.34,243.86,44.37,244,44.4Z"/><path class="cls-2" d="M251.37,48.11l-.29,0C251.22,48.16,251.32,48.21,251.37,48.11Z"/><polygon class="cls-2" points="235.79 40.12 235.79 40.12 235.75 40.09 235.79 40.12"/><path class="cls-2" d="M250.73,47.93a.73.73,0,0,0,.35.16A1.11,1.11,0,0,0,250.73,47.93Z"/><path class="cls-2" d="M274.87,61.17l.07,0s0,0,0,0Z"/><path class="cls-2" d="M275,61.18l.09,0A.11.11,0,0,0,275,61.18Z"/><path class="cls-2" d="M275.24,61.23l-.19,0C275.11,61.22,275.17,61.26,275.24,61.23Z"/><path class="cls-2" d="M272.8,59.94l-.07,0S272.77,60,272.8,59.94Z"/><path class="cls-2" d="M272.3,59.76a1,1,0,0,1,.25.15c.05,0,.06.08.13.1l.05,0c-.09,0-.08-.06-.14-.12A.32.32,0,0,0,272.3,59.76Z"/><path class="cls-2" d="M269.87,57.88l.49.31c-.06-.11-.13-.26.11-.17C269.93,57.51,270.52,58.25,269.87,57.88Z"/><path class="cls-2" d="M268.62,56.53h0l.28.42H269c.06,0-.09,0-.06,0h0l-.24-.56C268.48,56.38,268.44,56.38,268.62,56.53Z"/><path class="cls-2" d="M257.13,50.13l.1-.16C257,49.9,257.2,50,257.13,50.13Z"/><path class="cls-2" d="M254.52,49.73l.13.2.18-.08Z"/><polygon class="cls-2" points="253.74 47.92 253.85 47.94 253.45 47.83 253.74 47.92"/><path class="cls-2" d="M234.27,37.44l0,.23C234.4,37.7,234.54,37.49,234.27,37.44Z"/><path class="cls-2" d="M225.58,33.4a.48.48,0,0,0-.44-.3C225.32,33.21,225.47,33.38,225.58,33.4Z"/><polygon class="cls-2" points="200.68 19.35 200.88 19.36 200.54 19.26 200.68 19.35"/><path class="cls-3" d="M19,72.41c.07,0,0,0-.22.06h-.29l-.11,0-.11,0c-.23,0-.53,0-.87.11l-1.1.16-.07,0-.08,0q.09,0-2.25.39a2.73,2.73,0,0,0-.43,1.36.7.7,0,0,0,.35.08l.11,0,.11,0,.1,0,.08,0,1.91,0,1.21,0c.12,0,.18,0,.2.08s0,.19.05.29a2.78,2.78,0,0,1-.85.31,6.89,6.89,0,0,1-1.56.13,15.74,15.74,0,0,0-1.88.17.23.23,0,0,0-.17.19l0,.2a3.22,3.22,0,0,0-.27.91V77a.53.53,0,0,0,.12,0l3-.4.53,0h.07l.44,0a.28.28,0,0,1,.13.06h.58l.22,0,.21,0a1.34,1.34,0,0,1,.52.12c.05.2.09.28.09.23a.38.38,0,0,1-.16.25.48.48,0,0,1-.3.13l-.09,0h-.11l-.18.05-.2.06-1.64.14c-.37,0-1,.13-2,.28l-1.23.19a3.58,3.58,0,0,1-.57-.11,3,3,0,0,0-.57-.12c0-.09-.05-.14-.05-.15l.17-.53c.13-.37.22-.63.26-.78l.2-.72s-.06,0-.18-.25a.87.87,0,0,0-.08-.28,3.15,3.15,0,0,0,.5-.39,5.55,5.55,0,0,0,.28-.92V73.5l0-.06s.06-.07.06-.09-.06-.11-.17-.16a.54.54,0,0,0-.27-.08,1.87,1.87,0,0,1-.08-.39.3.3,0,0,1,.23-.29,3.55,3.55,0,0,1,1.18-.17l0,0h0a.38.38,0,0,0,.12,0l.11,0c.42,0,1.25-.06,2.51-.13l1.57-.1a2.28,2.28,0,0,1,.64.22h.28a.34.34,0,0,1,.24.1A1,1,0,0,1,19,72.41Z"/><path class="cls-3" d="M22.64,77.24a.8.8,0,0,1-.3.16l-1,.32A4.79,4.79,0,0,1,20,78l-.17,0-.16,0-.15,0-.13,0s-.1,0-.17-.15a.46.46,0,0,1-.11-.21.73.73,0,0,1,.12-.19l1.2-.22a3.32,3.32,0,0,0,1.05-.31.06.06,0,0,0,0,0,4.27,4.27,0,0,0-.84-.39c-.49-.21-.78-.33-.86-.38a2.49,2.49,0,0,1-.45-.25.51.51,0,0,1-.08-.33s0,0,0-.05.08-.25.37-.36a7,7,0,0,1,1.34-.33,9.21,9.21,0,0,1,1.47-.15.27.27,0,0,1,.2,0,.65.65,0,0,1,.23.37.29.29,0,0,1-.15.29l-1.18.15-.09,0-.13,0h-.07l-.07,0a1.23,1.23,0,0,0-.5.14.37.37,0,0,0,.18.17l.54.14.43.15.06,0,.37.15a1,1,0,0,1,.35.28.69.69,0,0,1,.11.29s0,0,0,.09a.29.29,0,0,1,.05.1S22.73,77.16,22.64,77.24Z"/><path class="cls-3" d="M27.41,77.37c0,.23-.13.35-.39.35l-.06,0H26.9l-.23.09-.28.12a5.32,5.32,0,0,1-.93.14.35.35,0,0,1-.12,0h-.16a.41.41,0,0,1-.19.06,1.52,1.52,0,0,1-.8-.24,1,1,0,0,1-.51-.56l-.1-.26a.89.89,0,0,1,.13-.5,2.4,2.4,0,0,1,.65-.69,2.79,2.79,0,0,1,.58-.32,2.86,2.86,0,0,1,1-.3l.16,0,.17,0a.89.89,0,0,1,.48.08.43.43,0,0,1,.12.36.57.57,0,0,1-.06.12.38.38,0,0,0-.06.11.42.42,0,0,1-.22,0l-.1,0h-.12a3.68,3.68,0,0,0-1.53.58.72.72,0,0,0-.36.5,1.63,1.63,0,0,0,1,.34l.5,0,.48,0,.39-.05.38-.06a.37.37,0,0,1,.25.08Z"/><path class="cls-3" d="M32.13,78.09a.24.24,0,0,1-.2.12,7.05,7.05,0,0,1-.88-.42l-.45-.24a1.26,1.26,0,0,0-.46.14l-.46.2a1.82,1.82,0,0,1-.52.08,1.37,1.37,0,0,1-.8-.43.79.79,0,0,1-.17-.43,2.08,2.08,0,0,1,.16-.65.42.42,0,0,1,.23-.19l.24-.11a3,3,0,0,1,1.55-.51,1.51,1.51,0,0,1,.51.11c.07,0,.14.11.24.27a.85.85,0,0,1,.14.35.41.41,0,0,1-.23.34,1.75,1.75,0,0,0-.75-.27,1.53,1.53,0,0,0-.6.14,2.38,2.38,0,0,0-.61.39c0,.08.1.12.27.12-.05,0,.11-.06.51-.19a2.94,2.94,0,0,1,.92-.19,2.35,2.35,0,0,1,.57.42,5,5,0,0,0,.78.56c.05.06.08.1.08.12A.5.5,0,0,1,32.13,78.09Z"/><path class="cls-3" d="M34.28,72.54A11.29,11.29,0,0,0,34,74c0,.12-.1.44-.24,1a1.7,1.7,0,0,1,0,.25c-.05.2-.1.49-.16.88v.4a2.86,2.86,0,0,0,0,.69.33.33,0,0,0,0,.12.36.36,0,0,1,.09.24.5.5,0,0,1-.1.31.27.27,0,0,1-.24.15.5.5,0,0,1-.23-.11.89.89,0,0,1-.22-.2s0-.19,0-.5c0-.06-.07-.09-.07-.1v-1l.5-3.35.06-.25a2.91,2.91,0,0,0,.07-.31,1,1,0,0,0,0-.23l0-.19.23-.46.1-.06a.58.58,0,0,1,.35.21c.15.13.22.24.22.31Z"/><path class="cls-3" d="M38.67,78.09a.24.24,0,0,1-.2.12,7.05,7.05,0,0,1-.88-.42l-.45-.24a1.26,1.26,0,0,0-.46.14l-.46.2a1.82,1.82,0,0,1-.52.08,1.37,1.37,0,0,1-.8-.43.79.79,0,0,1-.17-.43,2.08,2.08,0,0,1,.16-.65.42.42,0,0,1,.23-.19l.24-.11a3,3,0,0,1,1.55-.51,1.6,1.6,0,0,1,.52.11.74.74,0,0,1,.23.27.85.85,0,0,1,.14.35.41.41,0,0,1-.23.34,1.75,1.75,0,0,0-.75-.27,1.53,1.53,0,0,0-.6.14,2.38,2.38,0,0,0-.61.39c0,.08.1.12.27.12-.05,0,.11-.06.51-.19a2.94,2.94,0,0,1,.92-.19,2.35,2.35,0,0,1,.57.42,5,5,0,0,0,.78.56c.05.06.08.1.08.12A.5.5,0,0,1,38.67,78.09Z"/><path class="cls-3" d="M43.74,72.54A9.7,9.7,0,0,0,43.46,74l-.24,1a1.7,1.7,0,0,1,0,.25c0,.2-.1.49-.16.88v.4a3.74,3.74,0,0,0,0,.69.83.83,0,0,0,0,.12.36.36,0,0,1,.09.24.5.5,0,0,1-.1.31.3.3,0,0,1-.24.15.5.5,0,0,1-.23-.11.63.63,0,0,1-.22-.2s0-.19,0-.5c0-.06-.06-.09-.06-.1v-1l.49-3.35s0-.09.07-.25l.07-.31s0-.1,0-.23l0-.19.24-.46.1-.06a.58.58,0,0,1,.35.21c.15.13.22.24.22.31Z"/><path class="cls-3" d="M45.18,77.46a1.93,1.93,0,0,1-.08.44l-.1,0a.83.83,0,0,1-.35-.1.39.39,0,0,0-.09-.24,1.77,1.77,0,0,1-.15-.26,3.32,3.32,0,0,1,0-.53,11.3,11.3,0,0,1,.18-1.33.33.33,0,0,1,.26-.14c.12,0,.2.09.25.27C45.14,75.61,45.16,76.24,45.18,77.46Zm0-3.29c-.25-.07-.38-.18-.38-.33a.94.94,0,0,1,.16-.47l.33-.05a1.17,1.17,0,0,1,.12.49C45.38,73.87,45.3,74,45.15,74.17Z"/><path class="cls-3" d="M49.79,78a.94.94,0,0,1-.19-.07.94.94,0,0,0-.24-.1,1.25,1.25,0,0,1-.22-.7,4.58,4.58,0,0,0-.26-1.19s-.09,0-.19,0a.78.78,0,0,0-.34.11l-.34.17c-.09.08-.28.29-.58.62s-.52.58-.59.58a.56.56,0,0,1-.48-.36,1.18,1.18,0,0,1-.16-.57,1.21,1.21,0,0,1,.17-.45,1.12,1.12,0,0,1,0-.22,2.84,2.84,0,0,1,.21-.43l.12,0,.12,0s.07.1.17.19.18.13.22.13l.72-.32c.46-.21.7-.31.72-.31a1.21,1.21,0,0,1,.86.58l.3.46a4,4,0,0,1,.21,1.41C50.05,77.78,50,78,49.79,78Z"/><path class="cls-3" d="M54.72,76.32c0,.26-.07.41-.16.46s-.45.06-.92.08l-.7,0a4.26,4.26,0,0,0-.79,0s-.1,0-.21,0l-.06.06c0,.07.33.38,1.24.45.1,0,.27,0,.52,0s.49.12.49.24-.11.1-.3.2l-.16.16-.28,0-.4,0-.4,0a1.53,1.53,0,0,1-.43-.13l-.33-.18a1.37,1.37,0,0,1-.61-.45.89.89,0,0,1-.27-.58,1.12,1.12,0,0,1,.08-.48,2.37,2.37,0,0,1,2.36-1.14,1.24,1.24,0,0,1,.87.26,3.2,3.2,0,0,1,.44.5A1.2,1.2,0,0,1,54.72,76.32Zm-.9-.47a.7.7,0,0,0-.22-.14c-.31,0-.77.08-1.09.13a1.14,1.14,0,0,0-.33.15c-.14.1-.2.16-.2.22s0,.06,0,.06h1.37c.29,0,.47,0,.52-.13S53.85,76,53.82,75.85Z"/><path class="cls-3" d="M59.49,78.09a.23.23,0,0,1-.19.12,7.05,7.05,0,0,1-.88-.42L58,77.55a1.26,1.26,0,0,0-.46.14l-.46.2a1.82,1.82,0,0,1-.52.08,1.37,1.37,0,0,1-.8-.43.72.72,0,0,1-.17-.43,1.83,1.83,0,0,1,.16-.65c0-.07.1-.13.23-.19l.24-.11a3,3,0,0,1,1.54-.51,1.51,1.51,0,0,1,.52.11.59.59,0,0,1,.23.27.77.77,0,0,1,.15.35.41.41,0,0,1-.23.34,1.75,1.75,0,0,0-.75-.27,1.46,1.46,0,0,0-.6.14,2.38,2.38,0,0,0-.61.39q0,.12.27.12c-.05,0,.11-.06.5-.19a3.05,3.05,0,0,1,.92-.19,2.11,2.11,0,0,1,.58.42,5,5,0,0,0,.77.56q.09.09.09.12A.43.43,0,0,1,59.49,78.09Z"/><path class="cls-3" d="M61.65,72.54A9.7,9.7,0,0,0,61.37,74l-.24,1a1.7,1.7,0,0,1,0,.25c0,.2-.1.49-.16.88v.4a3.74,3.74,0,0,0,0,.69.83.83,0,0,0,0,.12.36.36,0,0,1,.09.24.5.5,0,0,1-.1.31.3.3,0,0,1-.24.15.5.5,0,0,1-.23-.11.63.63,0,0,1-.22-.2s0-.19-.05-.5c0-.06-.06-.09-.06-.1v-1l.49-3.35s0-.09.07-.25l.07-.31s0-.1,0-.23l0-.19.24-.46.1-.06a.58.58,0,0,1,.35.21c.15.13.22.24.22.31Z"/><path class="cls-3" d="M175.94,74.41c.07,0,0,0-.22.06h-.3l-.1,0-.11,0c-.23,0-.53,0-.87.11l-1.11.16-.06,0-.08,0c.06,0-.7.13-2.25.39a2.72,2.72,0,0,0-.44,1.36.77.77,0,0,0,.36.08l.11,0,.11,0,.09,0,.08,0,1.92,0,1.2,0c.12,0,.19,0,.2.08l.06.29a3,3,0,0,1-.86.31,6.85,6.85,0,0,1-1.55.13,15.74,15.74,0,0,0-1.88.17.23.23,0,0,0-.17.19l0,.2a2.9,2.9,0,0,0-.27.91V79a.53.53,0,0,0,.12,0l3-.4.53,0h.06l.45,0a.33.33,0,0,1,.13.06h.57l.23,0,.21,0a1.38,1.38,0,0,1,.52.12c0,.2.08.28.08.23a.34.34,0,0,1-.16.25.44.44,0,0,1-.29.13l-.1,0H175l-.19.05-.2.06-1.63.14c-.37,0-1,.13-2,.28l-1.23.19a3.38,3.38,0,0,1-.57-.11,3,3,0,0,0-.57-.12c0-.09,0-.14,0-.15l.17-.53c.13-.37.21-.63.25-.78l.2-.72s-.05,0-.17-.25A.87.87,0,0,0,169,77a3.71,3.71,0,0,0,.49-.39,5,5,0,0,0,.29-.92s0,0,0-.18l.05-.06s.06-.07.06-.09-.06-.11-.17-.16a.57.57,0,0,0-.27-.08,1.87,1.87,0,0,1-.08-.39.3.3,0,0,1,.23-.29,3.55,3.55,0,0,1,1.18-.17l0,0h0a.34.34,0,0,0,.13,0l.11,0c.42,0,1.25-.06,2.51-.13l1.56-.1a2.29,2.29,0,0,1,.65.22h.28a.38.38,0,0,1,.24.1A1,1,0,0,1,175.94,74.41Z"/><path class="cls-3" d="M179.58,79.24a.84.84,0,0,1-.31.16l-1,.32A4.79,4.79,0,0,1,177,80l-.17,0-.16,0-.15,0-.14,0s-.09,0-.16-.15a.42.42,0,0,1-.12-.21.73.73,0,0,1,.12-.19l1.21-.22a3.51,3.51,0,0,0,1-.31.06.06,0,0,0,0,0,5,5,0,0,0-.84-.39c-.49-.21-.78-.33-.86-.38a2.49,2.49,0,0,1-.45-.25c-.06,0-.08-.17-.08-.33,0,0,0,0,0-.05s.08-.25.37-.36a7,7,0,0,1,1.34-.33,9.1,9.1,0,0,1,1.46-.15c.11,0,.17,0,.2,0a.69.69,0,0,1,.24.37.28.28,0,0,1-.16.29l-1.17.15-.1,0a.31.31,0,0,1-.12,0h-.08l-.06,0a1.23,1.23,0,0,0-.5.14.37.37,0,0,0,.18.17l.54.14c.07,0,.2.08.43.15l0,0,.38.15a1,1,0,0,1,.35.28.59.59,0,0,1,.1.29l.06.09a.29.29,0,0,1,0,.1S179.67,79.16,179.58,79.24Z"/><path class="cls-3" d="M184.35,79.37c0,.23-.13.35-.39.35l-.06,0h-.06l-.24.09-.27.12a5.32,5.32,0,0,1-.93.14.35.35,0,0,1-.12,0h-.16a.45.45,0,0,1-.19.06,1.49,1.49,0,0,1-.8-.24,1,1,0,0,1-.52-.56l-.09-.26a.89.89,0,0,1,.13-.5,2.26,2.26,0,0,1,.65-.69,2.55,2.55,0,0,1,.58-.32,2.86,2.86,0,0,1,1-.3l.16,0,.16,0a.89.89,0,0,1,.48.08.43.43,0,0,1,.12.36.34.34,0,0,1-.05.12l-.07.11a.38.38,0,0,1-.21,0l-.11,0h-.11a3.63,3.63,0,0,0-1.53.58.72.72,0,0,0-.36.5,1.63,1.63,0,0,0,1,.34l.49,0,.49,0,.39-.05.38-.06a.41.41,0,0,1,.25.08Z"/><path class="cls-3" d="M189.06,80.09a.23.23,0,0,1-.19.12,7.05,7.05,0,0,1-.88-.42l-.45-.24a1.26,1.26,0,0,0-.46.14l-.46.2a1.82,1.82,0,0,1-.52.08,1.37,1.37,0,0,1-.8-.43.72.72,0,0,1-.17-.43,1.83,1.83,0,0,1,.16-.65c0-.07.1-.13.23-.19l.24-.11a3,3,0,0,1,1.54-.51,1.51,1.51,0,0,1,.52.11.59.59,0,0,1,.23.27.77.77,0,0,1,.15.35.41.41,0,0,1-.23.34,1.75,1.75,0,0,0-.75-.27,1.46,1.46,0,0,0-.6.14A2.38,2.38,0,0,0,186,79q0,.12.27.12c-.05,0,.11-.06.5-.19a3.05,3.05,0,0,1,.92-.19,2.11,2.11,0,0,1,.58.42,5,5,0,0,0,.77.56q.09.09.09.12A.43.43,0,0,1,189.06,80.09Z"/><path class="cls-3" d="M191.22,74.54a9.7,9.7,0,0,0-.28,1.42l-.24,1a1.7,1.7,0,0,1,0,.25c-.05.2-.1.49-.16.88v.4a3.74,3.74,0,0,0,0,.69.83.83,0,0,0,0,.12.36.36,0,0,1,.09.24.5.5,0,0,1-.1.31.3.3,0,0,1-.24.15.5.5,0,0,1-.23-.11.63.63,0,0,1-.22-.2s0-.19,0-.5l-.06-.1v-1l.49-3.35s0-.09.07-.25l.07-.31s0-.1,0-.23l0-.19.24-.46.1-.06a.58.58,0,0,1,.35.21c.15.13.22.24.22.31Z"/><path class="cls-3" d="M195.6,80.09a.23.23,0,0,1-.19.12,7.05,7.05,0,0,1-.88-.42l-.45-.24a1.26,1.26,0,0,0-.46.14l-.46.2a1.82,1.82,0,0,1-.52.08,1.37,1.37,0,0,1-.8-.43.72.72,0,0,1-.17-.43,1.83,1.83,0,0,1,.16-.65c0-.07.1-.13.23-.19l.24-.11a3,3,0,0,1,1.54-.51,1.51,1.51,0,0,1,.52.11.59.59,0,0,1,.23.27.77.77,0,0,1,.15.35.41.41,0,0,1-.23.34,1.75,1.75,0,0,0-.75-.27,1.46,1.46,0,0,0-.6.14,2.38,2.38,0,0,0-.61.39q0,.12.27.12s.11-.06.5-.19a3.05,3.05,0,0,1,.92-.19,2.11,2.11,0,0,1,.58.42,5,5,0,0,0,.77.56q.09.09.09.12A.43.43,0,0,1,195.6,80.09Z"/><path class="cls-3" d="M200.68,74.54A9.7,9.7,0,0,0,200.4,76l-.24,1v.25c0,.2-.09.49-.16.88v.4a3.51,3.51,0,0,0,.05.69l-.05.12a.33.33,0,0,1,.1.24.5.5,0,0,1-.1.31.3.3,0,0,1-.24.15.58.58,0,0,1-.24-.11.67.67,0,0,1-.21-.2,3.63,3.63,0,0,1-.05-.5c0-.06-.06-.09-.06-.1v-1l.49-3.35s0-.09.07-.25l.07-.31s0-.1,0-.23l0-.19.23-.46.11-.06a.58.58,0,0,1,.35.21c.14.13.22.24.22.31Z"/><path class="cls-3" d="M205.38,79a3.3,3.3,0,0,1-.9.62,5.52,5.52,0,0,1-1.06.38l-.34.08a2.46,2.46,0,0,1-1.11-.33,1.35,1.35,0,0,1-.78-.84s0-.07-.06-.2a1,1,0,0,1-.08-.2,3.17,3.17,0,0,1,.1-.37,1.63,1.63,0,0,1,.14-.38.83.83,0,0,1,.37-.27l.38-.18a6.18,6.18,0,0,1,1-.45l.29,0,.15-.07.26,0,.24,0a1.41,1.41,0,0,1,1.5,1,5,5,0,0,1,.17.54A1.19,1.19,0,0,1,205.38,79Zm-1.3-1.5a3.9,3.9,0,0,0-1.23.24l-.15.11a.74.74,0,0,0-.29.08c-.34.34-.52.56-.52.66s.15.31.42.45a1.39,1.39,0,0,0,.61.19,2.59,2.59,0,0,0,1.09-.34c.54-.27.8-.54.8-.81S204.57,77.54,204.08,77.54Z"/><path class="cls-3" d="M209.67,80.53a.27.27,0,0,0,0,.11,6.09,6.09,0,0,1-.68,2.07,4.3,4.3,0,0,1-1.11.94,2.41,2.41,0,0,1-1.15.36,2.85,2.85,0,0,1-1.45-.44,2.61,2.61,0,0,1-1-.86,1.71,1.71,0,0,1-.15-.81c0-.43.42-.77,1.28-1l1.39-.23a13.59,13.59,0,0,1,2.13-.26c.05,0,.08-.13.08-.31v-.7s0,0,0,0,0,0,0-.09a1.76,1.76,0,0,0-.31-.88,1.26,1.26,0,0,0-.35,0,6.13,6.13,0,0,1-.84.18l-.08,0a.16.16,0,0,0-.09,0,.79.79,0,0,1-.5-.16.5.5,0,0,1-.23-.37,1.07,1.07,0,0,1,.2-.58.94.94,0,0,1,.57-.37l.51-.12a3.06,3.06,0,0,1,1-.12.48.48,0,0,1,.24.07,1.3,1.3,0,0,1,.27,0,.34.34,0,0,1,.22.31,1.66,1.66,0,0,0-.13.23,3.9,3.9,0,0,0-.54-.06,3,3,0,0,0-.89.2c-.37.12-.57.24-.57.31a2,2,0,0,0,.75-.11,2.1,2.1,0,0,1,.63-.05.3.3,0,0,1,.26.09,1.86,1.86,0,0,1,.48,1c.07.39.11.6.11.63v.25q0,.22,0,.24v0s0,.12,0,.26l.06.22S209.7,80.46,209.67,80.53Zm-1,.15a1.67,1.67,0,0,0-.47.07l-.19.11a2.83,2.83,0,0,0-.43,0l-.69.23-1.1.28-.33.16c-.39.15-.59.31-.59.47s.18.43.55.62A5.63,5.63,0,0,0,206,83a2.52,2.52,0,0,0,.85.14l.23,0,.22,0a1.39,1.39,0,0,0,.61-.32,2.53,2.53,0,0,0,.55-.49,2,2,0,0,0,.35-.6,2.42,2.42,0,0,0,.15-1A.83.83,0,0,0,208.64,80.68Z"/><path class="cls-3" d="M214.54,80.09a.24.24,0,0,1-.19.12,6.4,6.4,0,0,1-.88-.42l-.46-.24a1.28,1.28,0,0,0-.45.14l-.47.2a1.72,1.72,0,0,1-.52.08,1.4,1.4,0,0,1-.8-.43.79.79,0,0,1-.17-.43,2.08,2.08,0,0,1,.16-.65.45.45,0,0,1,.24-.19l.24-.11a3,3,0,0,1,1.54-.51,1.56,1.56,0,0,1,.52.11.65.65,0,0,1,.23.27.77.77,0,0,1,.15.35.42.42,0,0,1-.24.34,1.7,1.7,0,0,0-.75-.27,1.53,1.53,0,0,0-.6.14,2.8,2.8,0,0,0-.61.39c0,.08.11.12.28.12,0,0,.11-.06.5-.19a3,3,0,0,1,.92-.19,2.11,2.11,0,0,1,.58.42,4.57,4.57,0,0,0,.77.56q.09.09.09.12A.5.5,0,0,1,214.54,80.09Z"/><path class="cls-3" d="M219.86,77.87l-.07-.06a.18.18,0,0,1-.14.06l-.9-.07-.89-.09a1.76,1.76,0,0,0-1.63.76,2.09,2.09,0,0,0-.23.66l-.09.09a3.79,3.79,0,0,1-.09.7,1,1,0,0,1-.36.06c-.29,0-.43-.17-.43-.53,0-.07,0-.25.06-.55s.06-.62.08-.82.27-.49.39-.49l.11,0a.31.31,0,0,0,.12,0,.5.5,0,0,0,.17-.12l.14-.11c.15-.08.37-.2.68-.34a1.91,1.91,0,0,1,.84-.17c.09,0,.79.1,2.08.32,0,0,0,0,.07.07l.4,0c0,.17,0,.27.05.29Z"/><path class="cls-3" d="M222.12,76.89l-.29.11a3.17,3.17,0,0,1-1,.48c-.21,0-.31-.09-.31-.28a.34.34,0,0,1,0-.11c0-.07,0-.11,0-.12l1-.41a.75.75,0,0,1,.17-.1,3.81,3.81,0,0,1,1-.39.29.29,0,0,1,.15.06c.07,0,.1.06.1.1S222.68,76.58,222.12,76.89Zm0,2.57a1.93,1.93,0,0,1-.08.44l-.1,0a.83.83,0,0,1-.35-.1.47.47,0,0,0-.09-.24,1.13,1.13,0,0,1-.15-.26,2.31,2.31,0,0,1,0-.53,9.78,9.78,0,0,1,.15-1,.32.32,0,0,1,.27-.13c.11,0,.19.08.24.26A9.09,9.09,0,0,1,222.08,79.46Z"/><path class="cls-3" d="M227.76,77.3a1.38,1.38,0,0,1-.43.13,1,1,0,0,0-.36.11l-.16,0-.19,0a7.23,7.23,0,0,0-1,.08c-.13,0-.21.06-.24.14s-.1.38-.17.69a9.86,9.86,0,0,1-.14,1.29l-.07.09L225,80a.82.82,0,0,1-.52-.13s0-.13,0-.3,0-.8.18-1.81a.27.27,0,0,0-.21-.08h-.25l-.78,0q-.48-.07-.48-.48a.3.3,0,0,1,.11-.24.29.29,0,0,1,.23-.12l.22,0H224l.1,0,.1,0h.22l.22,0a.22.22,0,0,0,.24-.2l.14-.51.26-.76c0-.1,0-.24.07-.41s.13-.21.2-.35c.3-.64.56-1,.77-1s.22.14.39.44a1,1,0,0,1-.15.36,2.68,2.68,0,0,0-.2.29c-.06.18-.2.58-.44,1.2a3.65,3.65,0,0,0-.16.81,2,2,0,0,0,.34.08l.22,0a2.12,2.12,0,0,1,.38,0,1.8,1.8,0,0,1,.49,0l.2,0c.32,0,.48.08.48.22A.24.24,0,0,1,227.76,77.3Z"/><path class="cls-3" d="M235.36,80.3h-.16c-.11,0-.22-.07-.36-.22a.34.34,0,0,0,0-.16,3.43,3.43,0,0,1-.22-1.48l-.08-.08a2.49,2.49,0,0,0-1.26.61l-1.21.94a.47.47,0,0,1-.32.08c-.32,0-.51-.12-.54-.36,0-.06,0-.24,0-.53s0-.56,0-.76a3,3,0,0,0,0-.56.15.15,0,0,0-.15-.08,1.52,1.52,0,0,0-.68.39c-.11.09-.31.25-.58.49l-.56.54c-.34.33-.59.49-.74.49s-.2-.08-.32-.23a1,1,0,0,1-.14-.25,4.22,4.22,0,0,1,.14-.86c.11-.51.25-.77.39-.77a.39.39,0,0,1,.33.21l.19.33.87-.62a2.55,2.55,0,0,1,1.19-.58.84.84,0,0,1,.58.38c.18.2.28.33.28.39a4.39,4.39,0,0,1,.08,1,.15.15,0,0,0,.08,0,.73.73,0,0,0,.4-.24,2.58,2.58,0,0,0,.31-.19l.87-.54a2.21,2.21,0,0,1,1.11-.22.38.38,0,0,0,.21.2,3.24,3.24,0,0,1,.37.59,4,4,0,0,1,0,1,2.62,2.62,0,0,0,0,.53c0,.26.05.42.05.51Z"/><path class="cls-3" d="M237.37,79.46a1.68,1.68,0,0,1-.09.44l-.09,0a.83.83,0,0,1-.35-.1.6.6,0,0,0-.09-.24,1.13,1.13,0,0,1-.15-.26,3.32,3.32,0,0,1,0-.53,11.42,11.42,0,0,1,.17-1.33.35.35,0,0,1,.27-.14c.12,0,.2.09.25.27C237.32,77.61,237.35,78.24,237.37,79.46Zm0-3.29c-.26-.07-.38-.18-.38-.33a.85.85,0,0,1,.16-.47l.33-.05a1.17,1.17,0,0,1,.12.49C237.57,75.87,237.49,76,237.34,76.17Z"/><path class="cls-3" d="M242.17,79.37c0,.23-.13.35-.4.35l-.05,0h-.07l-.23.09-.27.12a5.27,5.27,0,0,1-.94.14l-.12,0h-.16a.38.38,0,0,1-.19.06,1.54,1.54,0,0,1-.8-.24,1,1,0,0,1-.51-.56l-.09-.26a.88.88,0,0,1,.12-.5,2.73,2.73,0,0,1,1.23-1,3,3,0,0,1,1-.3l.16,0,.17,0a.89.89,0,0,1,.48.08.43.43,0,0,1,.12.36,1,1,0,0,1-.05.12l-.07.11a.41.41,0,0,1-.21,0l-.11,0h-.11a3.71,3.71,0,0,0-1.54.58.73.73,0,0,0-.35.5,1.61,1.61,0,0,0,1,.34l.49,0,.49,0,.38-.05.39-.06a.41.41,0,0,1,.25.08Z"/><path class="cls-3" d="M246.89,80.09a.24.24,0,0,1-.19.12,5.86,5.86,0,0,1-.88-.42l-.46-.24a1.22,1.22,0,0,0-.45.14l-.47.2a1.77,1.77,0,0,1-.52.08,1.4,1.4,0,0,1-.8-.43.79.79,0,0,1-.17-.43,2.08,2.08,0,0,1,.16-.65.45.45,0,0,1,.24-.19l.24-.11a3,3,0,0,1,1.54-.51,1.56,1.56,0,0,1,.52.11.74.74,0,0,1,.23.27.73.73,0,0,1,.14.35.41.41,0,0,1-.23.34,1.7,1.7,0,0,0-.75-.27,1.53,1.53,0,0,0-.6.14,2.8,2.8,0,0,0-.61.39c0,.08.11.12.28.12-.05,0,.11-.06.5-.19a3,3,0,0,1,.92-.19,2,2,0,0,1,.57.42,5,5,0,0,0,.78.56q.09.09.09.12A.5.5,0,0,1,246.89,80.09Z"/></g></g></svg>